<svg width="1649" height="1009" xmlns="http://www.w3.org/2000/svg" xmlns:xlink="http://www.w3.org/1999/xlink" xml:space="preserve" overflow="hidden"><defs><clipPath id="clip0"><rect x="2305" y="565" width="1649" height="1009"/></clipPath><clipPath id="clip1"><rect x="2306" y="566" width="1645" height="1006"/></clipPath><clipPath id="clip2"><rect x="2306" y="566" width="1645" height="1006"/></clipPath><clipPath id="clip3"><rect x="2306" y="566" width="1645" height="1006"/></clipPath><clipPath id="clip4"><rect x="2306" y="566" width="1645" height="1006"/></clipPath><clipPath id="clip5"><rect x="2607" y="736" width="1224" height="531"/></clipPath><clipPath id="clip6"><rect x="2306" y="566" width="1645" height="1006"/></clipPath><clipPath id="clip7"><rect x="2607" y="736" width="1224" height="531"/></clipPath><clipPath id="clip8"><rect x="2306" y="566" width="1645" height="1006"/></clipPath><clipPath id="clip9"><rect x="2607" y="736" width="1224" height="531"/></clipPath><clipPath id="clip10"><rect x="2306" y="566" width="1645" height="1006"/></clipPath><clipPath id="clip11"><rect x="2607" y="736" width="1224" height="531"/></clipPath><clipPath id="clip12"><rect x="2306" y="566" width="1645" height="1006"/></clipPath><clipPath id="clip13"><rect x="2607" y="736" width="1224" height="531"/></clipPath><clipPath id="clip14"><rect x="2306" y="566" width="1645" height="1006"/></clipPath><clipPath id="clip15"><rect x="2607" y="736" width="1224" height="531"/></clipPath><clipPath id="clip16"><rect x="2306" y="566" width="1645" height="1006"/></clipPath><clipPath id="clip17"><rect x="2306" y="566" width="1645" height="1006"/></clipPath><clipPath id="clip18"><rect x="2306" y="566" width="1645" height="1006"/></clipPath><clipPath id="clip19"><rect x="2306" y="566" width="1645" height="1006"/></clipPath><clipPath id="clip20"><rect x="2306" y="566" width="1645" height="1006"/></clipPath><clipPath id="clip21"><rect x="2306" y="566" width="1645" height="1006"/></clipPath><clipPath id="clip22"><rect x="2306" y="566" width="1645" height="1006"/></clipPath><clipPath id="clip23"><rect x="2306" y="566" width="1645" height="1006"/></clipPath><clipPath id="clip24"><rect x="2306" y="566" width="1645" height="1006"/></clipPath><clipPath id="clip25"><rect x="2306" y="566" width="1645" height="1006"/></clipPath><clipPath id="clip26"><rect x="2306" y="566" width="1645" height="1006"/></clipPath><clipPath id="clip27"><rect x="2306" y="566" width="1645" height="1006"/></clipPath><clipPath id="clip28"><rect x="2306" y="566" width="1645" height="1006"/></clipPath><clipPath id="clip29"><rect x="2306" y="566" width="1645" height="1006"/></clipPath><clipPath id="clip30"><rect x="2306" y="566" width="1645" height="1006"/></clipPath><clipPath id="clip31"><rect x="2306" y="566" width="1645" height="1006"/></clipPath><clipPath id="clip32"><rect x="2306" y="566" width="1645" height="1006"/></clipPath><clipPath id="clip33"><rect x="2306" y="566" width="1645" height="1006"/></clipPath><clipPath id="clip34"><rect x="2306" y="566" width="1645" height="1006"/></clipPath><clipPath id="clip35"><rect x="2306" y="566" width="1645" height="1006"/></clipPath><clipPath id="clip36"><rect x="2306" y="566" width="1645" height="1006"/></clipPath><clipPath id="clip37"><rect x="2306" y="566" width="1645" height="1006"/></clipPath><clipPath id="clip38"><rect x="2306" y="566" width="1645" height="1006"/></clipPath><clipPath id="clip39"><rect x="2306" y="566" width="1645" height="1006"/></clipPath><clipPath id="clip40"><rect x="2306" y="566" width="1645" height="1006"/></clipPath><clipPath id="clip41"><rect x="2306" y="566" width="1645" height="1006"/></clipPath><clipPath id="clip42"><rect x="2306" y="566" width="1645" height="1006"/></clipPath><clipPath id="clip43"><rect x="2306" y="566" width="1645" height="1006"/></clipPath><clipPath id="clip44"><rect x="2306" y="566" width="1645" height="1006"/></clipPath><clipPath id="clip45"><rect x="2306" y="566" width="1645" height="1006"/></clipPath><clipPath id="clip46"><rect x="2306" y="566" width="1645" height="1006"/></clipPath><clipPath id="clip47"><rect x="2306" y="566" width="1645" height="1006"/></clipPath><clipPath id="clip48"><rect x="2306" y="566" width="1645" height="1006"/></clipPath><clipPath id="clip49"><rect x="2306" y="566" width="1645" height="1006"/></clipPath><clipPath id="clip50"><rect x="2306" y="566" width="1645" height="1006"/></clipPath><clipPath id="clip51"><rect x="2306" y="566" width="1645" height="1006"/></clipPath></defs><g clip-path="url(#clip0)" transform="translate(-2305 -565)"><rect x="2306" y="566" width="1646" height="1006" fill="#FFFFFF"/><g clip-path="url(#clip1)"><path d="M2607.5 1263.5 3828.5 1263.5M2607.5 1188.54 3828.5 1188.54M2607.5 1113.54 3828.5 1113.54M2607.5 1037.53 3828.5 1037.53M2607.5 886.529 3828.5 886.529M2607.5 811.527 3828.5 811.527M2607.5 736.5 3828.5 736.5" stroke="#D9D9D9" stroke-width="3.4375" stroke-linejoin="round" stroke-miterlimit="10" fill="none"/></g><g clip-path="url(#clip2)"><path d="M2851.59 736.5 2851.59 1263.5M3095.6 736.5 3095.6 1263.5M3339.61 736.5 3339.61 1263.5M3583.62 736.5 3583.62 1263.5M3828.5 736.5 3828.5 1263.5" stroke="#D9D9D9" stroke-width="3.4375" stroke-linejoin="round" stroke-miterlimit="10" fill="none"/></g><g clip-path="url(#clip3)"><path d="M0 0 0.000360892 527" stroke="#BFBFBF" stroke-width="3.4375" stroke-linejoin="round" stroke-miterlimit="10" fill="none" fill-rule="evenodd" transform="matrix(1 0 0 -1 2607.5 1263.5)"/></g><g clip-path="url(#clip4)"><path d="M2607.5 962.5 3828.5 962.5" stroke="#BFBFBF" stroke-width="3.4375" stroke-linejoin="round" stroke-miterlimit="10" fill="none" fill-rule="evenodd"/></g><g clip-path="url(#clip5)"><path d="M2607.5 1102.5 2851.59 1049.53 3095.6 994.533 3339.61 922.53 3583.62 848.528 3828.5 772.5" stroke="#4472C4" stroke-width="6.875" stroke-linecap="round" stroke-linejoin="round" stroke-miterlimit="10" fill="none"/></g><g clip-path="url(#clip6)"><path d="M2618.86 1102.71C2618.86 1108.78 2613.94 1113.71 2607.86 1113.71 2601.79 1113.71 2596.86 1108.78 2596.86 1102.71 2596.86 1096.64 2601.79 1091.71 2607.86 1091.71 2613.94 1091.71 2618.86 1096.64 2618.86 1102.71Z" stroke="#4472C4" stroke-width="3.4375" stroke-linejoin="round" stroke-miterlimit="10" fill="#4472C4"/><path d="M2862.86 1049.71C2862.86 1055.78 2857.94 1060.71 2851.86 1060.71 2845.79 1060.71 2840.86 1055.78 2840.86 1049.71 2840.86 1043.64 2845.79 1038.71 2851.86 1038.71 2857.94 1038.71 2862.86 1043.64 2862.86 1049.71Z" stroke="#4472C4" stroke-width="3.4375" stroke-linejoin="round" stroke-miterlimit="10" fill="#4472C4"/><path d="M3106.86 994.71C3106.86 1000.78 3101.94 1005.71 3095.86 1005.71 3089.79 1005.71 3084.86 1000.78 3084.86 994.71 3084.86 988.635 3089.79 983.71 3095.86 983.71 3101.94 983.71 3106.86 988.635 3106.86 994.71Z" stroke="#4472C4" stroke-width="3.4375" stroke-linejoin="round" stroke-miterlimit="10" fill="#4472C4"/><path d="M3350.86 922.71C3350.86 928.785 3345.94 933.71 3339.86 933.71 3333.79 933.71 3328.86 928.785 3328.86 922.71 3328.86 916.635 3333.79 911.711 3339.86 911.711 3345.94 911.711 3350.86 916.635 3350.86 922.71Z" stroke="#4472C4" stroke-width="3.4375" stroke-linejoin="round" stroke-miterlimit="10" fill="#4472C4"/><path d="M3594.86 848.71C3594.86 854.785 3589.94 859.71 3583.86 859.71 3577.79 859.71 3572.86 854.785 3572.86 848.71 3572.86 842.635 3577.79 837.71 3583.86 837.71 3589.94 837.71 3594.86 842.635 3594.86 848.71Z" stroke="#4472C4" stroke-width="3.4375" stroke-linejoin="round" stroke-miterlimit="10" fill="#4472C4"/><path d="M3839.86 772.71C3839.86 778.785 3834.94 783.71 3828.86 783.71 3822.79 783.71 3817.86 778.785 3817.86 772.71 3817.86 766.635 3822.79 761.71 3828.86 761.71 3834.94 761.71 3839.86 766.635 3839.86 772.71Z" stroke="#4472C4" stroke-width="3.4375" stroke-linejoin="round" stroke-miterlimit="10" fill="#4472C4"/></g><g clip-path="url(#clip7)"><path d="M2607.5 1123.5 2851.59 1056.53 3095.6 997.533 3339.61 920.53 3583.62 848.528 3828.5 772.5" stroke="#ED7D31" stroke-width="6.875" stroke-linecap="round" stroke-linejoin="round" stroke-miterlimit="10" fill="none"/></g><g clip-path="url(#clip8)"><path d="M2618.86 1123.71C2618.86 1129.78 2613.94 1134.71 2607.86 1134.71 2601.79 1134.71 2596.86 1129.78 2596.86 1123.71 2596.86 1117.64 2601.79 1112.71 2607.86 1112.71 2613.94 1112.71 2618.86 1117.64 2618.86 1123.71Z" stroke="#ED7D31" stroke-width="3.4375" stroke-linejoin="round" stroke-miterlimit="10" fill="#ED7D31"/><path d="M2862.86 1056.71C2862.86 1062.79 2857.94 1067.71 2851.86 1067.71 2845.79 1067.71 2840.86 1062.79 2840.86 1056.71 2840.86 1050.64 2845.79 1045.71 2851.86 1045.71 2857.94 1045.71 2862.86 1050.64 2862.86 1056.71Z" stroke="#ED7D31" stroke-width="3.4375" stroke-linejoin="round" stroke-miterlimit="10" fill="#ED7D31"/><path d="M3106.86 997.71C3106.86 1003.79 3101.94 1008.71 3095.86 1008.71 3089.79 1008.71 3084.86 1003.79 3084.86 997.71 3084.86 991.635 3089.79 986.71 3095.86 986.71 3101.94 986.71 3106.86 991.635 3106.86 997.71Z" stroke="#ED7D31" stroke-width="3.4375" stroke-linejoin="round" stroke-miterlimit="10" fill="#ED7D31"/><path d="M3350.86 920.71C3350.86 926.785 3345.94 931.71 3339.86 931.71 3333.79 931.71 3328.86 926.785 3328.86 920.71 3328.86 914.635 3333.79 909.71 3339.86 909.71 3345.94 909.71 3350.86 914.635 3350.86 920.71Z" stroke="#ED7D31" stroke-width="3.4375" stroke-linejoin="round" stroke-miterlimit="10" fill="#ED7D31"/><path d="M3594.86 848.71C3594.86 854.785 3589.94 859.71 3583.86 859.71 3577.79 859.71 3572.86 854.785 3572.86 848.71 3572.86 842.635 3577.79 837.71 3583.86 837.71 3589.94 837.71 3594.86 842.635 3594.86 848.71Z" stroke="#ED7D31" stroke-width="3.4375" stroke-linejoin="round" stroke-miterlimit="10" fill="#ED7D31"/><path d="M3839.86 772.71C3839.86 778.785 3834.94 783.71 3828.86 783.71 3822.79 783.71 3817.86 778.785 3817.86 772.71 3817.86 766.635 3822.79 761.71 3828.86 761.71 3834.94 761.71 3839.86 766.635 3839.86 772.71Z" stroke="#ED7D31" stroke-width="3.4375" stroke-linejoin="round" stroke-miterlimit="10" fill="#ED7D31"/></g><g clip-path="url(#clip9)"><path d="M2607.5 1140.5 2851.59 1087.54 3095.6 1014.53 3339.61 947.531 3583.62 872.529 3828.5 797.5" stroke="#A5A5A5" stroke-width="6.875" stroke-linecap="round" stroke-linejoin="round" stroke-miterlimit="10" fill="none"/></g><g clip-path="url(#clip10)"><path d="M2618.86 1140.71C2618.86 1146.79 2613.94 1151.71 2607.86 1151.71 2601.79 1151.71 2596.86 1146.79 2596.86 1140.71 2596.86 1134.64 2601.79 1129.71 2607.86 1129.71 2613.94 1129.71 2618.86 1134.64 2618.86 1140.71Z" stroke="#A5A5A5" stroke-width="3.4375" stroke-linejoin="round" stroke-miterlimit="10" fill="#A5A5A5"/><path d="M2862.86 1087.71C2862.86 1093.79 2857.94 1098.71 2851.86 1098.71 2845.79 1098.71 2840.86 1093.79 2840.86 1087.71 2840.86 1081.64 2845.79 1076.71 2851.86 1076.71 2857.94 1076.71 2862.86 1081.64 2862.86 1087.71Z" stroke="#A5A5A5" stroke-width="3.4375" stroke-linejoin="round" stroke-miterlimit="10" fill="#A5A5A5"/><path d="M3106.86 1014.71C3106.86 1020.78 3101.94 1025.71 3095.86 1025.71 3089.79 1025.71 3084.86 1020.78 3084.86 1014.71 3084.86 1008.64 3089.79 1003.71 3095.86 1003.71 3101.94 1003.71 3106.86 1008.64 3106.86 1014.71Z" stroke="#A5A5A5" stroke-width="3.4375" stroke-linejoin="round" stroke-miterlimit="10" fill="#A5A5A5"/><path d="M3350.86 948.71C3350.86 954.785 3345.94 959.71 3339.86 959.71 3333.79 959.71 3328.86 954.785 3328.86 948.71 3328.86 942.635 3333.79 937.71 3339.86 937.71 3345.94 937.71 3350.86 942.635 3350.86 948.71Z" stroke="#A5A5A5" stroke-width="3.4375" stroke-linejoin="round" stroke-miterlimit="10" fill="#A5A5A5"/><path d="M3594.86 872.71C3594.86 878.785 3589.94 883.71 3583.86 883.71 3577.79 883.71 3572.86 878.785 3572.86 872.71 3572.86 866.635 3577.79 861.71 3583.86 861.71 3589.94 861.71 3594.86 866.635 3594.86 872.71Z" stroke="#A5A5A5" stroke-width="3.4375" stroke-linejoin="round" stroke-miterlimit="10" fill="#A5A5A5"/><path d="M3839.86 797.71C3839.86 803.785 3834.94 808.71 3828.86 808.71 3822.79 808.71 3817.86 803.785 3817.86 797.71 3817.86 791.635 3822.79 786.71 3828.86 786.71 3834.94 786.71 3839.86 791.635 3839.86 797.71Z" stroke="#A5A5A5" stroke-width="3.4375" stroke-linejoin="round" stroke-miterlimit="10" fill="#A5A5A5"/></g><g clip-path="url(#clip11)"><path d="M2607.5 1117.5 2851.59 1091.54 3095.6 1040.53 3339.61 974.532 3583.62 898.53 3828.5 823.5" stroke="#FFC000" stroke-width="6.875" stroke-linecap="round" stroke-linejoin="round" stroke-miterlimit="10" fill="none"/></g><g clip-path="url(#clip12)"><path d="M2618.86 1117.71C2618.86 1123.78 2613.94 1128.71 2607.86 1128.71 2601.79 1128.71 2596.86 1123.78 2596.86 1117.71 2596.86 1111.64 2601.79 1106.71 2607.86 1106.71 2613.94 1106.71 2618.86 1111.64 2618.86 1117.71Z" stroke="#FFC000" stroke-width="3.4375" stroke-linejoin="round" stroke-miterlimit="10" fill="#FFC000"/><path d="M2862.86 1091.71C2862.86 1097.78 2857.94 1102.71 2851.86 1102.71 2845.79 1102.71 2840.86 1097.78 2840.86 1091.71 2840.86 1085.64 2845.79 1080.71 2851.86 1080.71 2857.94 1080.71 2862.86 1085.64 2862.86 1091.71Z" stroke="#FFC000" stroke-width="3.4375" stroke-linejoin="round" stroke-miterlimit="10" fill="#FFC000"/><path d="M3106.86 1041.71C3106.86 1047.79 3101.94 1052.71 3095.86 1052.71 3089.79 1052.71 3084.86 1047.79 3084.86 1041.71 3084.86 1035.64 3089.79 1030.71 3095.86 1030.71 3101.94 1030.71 3106.86 1035.64 3106.86 1041.71Z" stroke="#FFC000" stroke-width="3.4375" stroke-linejoin="round" stroke-miterlimit="10" fill="#FFC000"/><path d="M3350.86 974.71C3350.86 980.785 3345.94 985.71 3339.86 985.71 3333.79 985.71 3328.86 980.785 3328.86 974.71 3328.86 968.635 3333.79 963.71 3339.86 963.71 3345.94 963.71 3350.86 968.635 3350.86 974.71Z" stroke="#FFC000" stroke-width="3.4375" stroke-linejoin="round" stroke-miterlimit="10" fill="#FFC000"/><path d="M3594.86 898.71C3594.86 904.785 3589.94 909.71 3583.86 909.71 3577.79 909.71 3572.86 904.785 3572.86 898.71 3572.86 892.635 3577.79 887.71 3583.86 887.71 3589.94 887.71 3594.86 892.635 3594.86 898.71Z" stroke="#FFC000" stroke-width="3.4375" stroke-linejoin="round" stroke-miterlimit="10" fill="#FFC000"/><path d="M3839.86 823.71C3839.86 829.785 3834.94 834.71 3828.86 834.71 3822.79 834.71 3817.86 829.785 3817.86 823.71 3817.86 817.635 3822.79 812.711 3828.86 812.711 3834.94 812.711 3839.86 817.635 3839.86 823.71Z" stroke="#FFC000" stroke-width="3.4375" stroke-linejoin="round" stroke-miterlimit="10" fill="#FFC000"/></g><g clip-path="url(#clip13)"><path d="M2607.5 1002.53 2851.59 1014.5 3095.6 1009.53 3339.61 988.533 3583.62 931.531 3828.5 852.5" stroke="#5B9BD5" stroke-width="6.875" stroke-linecap="round" stroke-linejoin="round" stroke-miterlimit="10" fill="none"/></g><g clip-path="url(#clip14)"><path d="M2618.86 1002.71C2618.86 1008.78 2613.94 1013.71 2607.86 1013.71 2601.79 1013.71 2596.86 1008.78 2596.86 1002.71 2596.86 996.635 2601.79 991.71 2607.86 991.71 2613.94 991.71 2618.86 996.635 2618.86 1002.71Z" stroke="#5B9BD5" stroke-width="3.4375" stroke-linejoin="round" stroke-miterlimit="10" fill="#5B9BD5"/><path d="M2862.86 1014.71C2862.86 1020.78 2857.94 1025.71 2851.86 1025.71 2845.79 1025.71 2840.86 1020.78 2840.86 1014.71 2840.86 1008.64 2845.79 1003.71 2851.86 1003.71 2857.94 1003.71 2862.86 1008.64 2862.86 1014.71Z" stroke="#5B9BD5" stroke-width="3.4375" stroke-linejoin="round" stroke-miterlimit="10" fill="#5B9BD5"/><path d="M3106.86 1010.71C3106.86 1016.79 3101.94 1021.71 3095.86 1021.71 3089.79 1021.71 3084.86 1016.79 3084.86 1010.71 3084.86 1004.64 3089.79 999.711 3095.86 999.711 3101.94 999.711 3106.86 1004.64 3106.86 1010.71Z" stroke="#5B9BD5" stroke-width="3.4375" stroke-linejoin="round" stroke-miterlimit="10" fill="#5B9BD5"/><path d="M3350.86 988.71C3350.86 994.785 3345.94 999.71 3339.86 999.71 3333.79 999.71 3328.86 994.785 3328.86 988.71 3328.86 982.635 3333.79 977.711 3339.86 977.711 3345.94 977.711 3350.86 982.635 3350.86 988.71Z" stroke="#5B9BD5" stroke-width="3.4375" stroke-linejoin="round" stroke-miterlimit="10" fill="#5B9BD5"/><path d="M3594.86 931.71C3594.86 937.785 3589.94 942.71 3583.86 942.71 3577.79 942.71 3572.86 937.785 3572.86 931.71 3572.86 925.635 3577.79 920.71 3583.86 920.71 3589.94 920.71 3594.86 925.635 3594.86 931.71Z" stroke="#5B9BD5" stroke-width="3.4375" stroke-linejoin="round" stroke-miterlimit="10" fill="#5B9BD5"/><path d="M3839.86 852.71C3839.86 858.785 3834.94 863.71 3828.86 863.71 3822.79 863.71 3817.86 858.785 3817.86 852.71 3817.86 846.635 3822.79 841.71 3828.86 841.71 3834.94 841.71 3839.86 846.635 3839.86 852.71Z" stroke="#5B9BD5" stroke-width="3.4375" stroke-linejoin="round" stroke-miterlimit="10" fill="#5B9BD5"/></g><g clip-path="url(#clip15)"><path d="M2607.5 1192.5 2851.59 1113.54 3095.6 1031.53 3339.61 952.531 3583.62 872.529 3828.5 792.5" stroke="#70AD47" stroke-width="6.875" stroke-linecap="round" stroke-linejoin="round" stroke-miterlimit="10" fill="none"/></g><g clip-path="url(#clip16)"><path d="M2618.86 1192.71C2618.86 1198.78 2613.94 1203.71 2607.86 1203.71 2601.79 1203.71 2596.86 1198.78 2596.86 1192.71 2596.86 1186.64 2601.79 1181.71 2607.86 1181.71 2613.94 1181.71 2618.86 1186.64 2618.86 1192.71Z" stroke="#70AD47" stroke-width="3.4375" stroke-linejoin="round" stroke-miterlimit="10" fill="#70AD47"/><path d="M2862.86 1113.71C2862.86 1119.78 2857.94 1124.71 2851.86 1124.71 2845.79 1124.71 2840.86 1119.78 2840.86 1113.71 2840.86 1107.64 2845.79 1102.71 2851.86 1102.71 2857.94 1102.71 2862.86 1107.64 2862.86 1113.71Z" stroke="#70AD47" stroke-width="3.4375" stroke-linejoin="round" stroke-miterlimit="10" fill="#70AD47"/><path d="M3106.86 1031.71C3106.86 1037.79 3101.94 1042.71 3095.86 1042.71 3089.79 1042.71 3084.86 1037.79 3084.86 1031.71 3084.86 1025.64 3089.79 1020.71 3095.86 1020.71 3101.94 1020.71 3106.86 1025.64 3106.86 1031.71Z" stroke="#70AD47" stroke-width="3.4375" stroke-linejoin="round" stroke-miterlimit="10" fill="#70AD47"/><path d="M3350.86 952.71C3350.86 958.785 3345.94 963.71 3339.86 963.71 3333.79 963.71 3328.86 958.785 3328.86 952.71 3328.86 946.635 3333.79 941.71 3339.86 941.71 3345.94 941.71 3350.86 946.635 3350.86 952.71Z" stroke="#70AD47" stroke-width="3.4375" stroke-linejoin="round" stroke-miterlimit="10" fill="#70AD47"/><path d="M3594.86 872.71C3594.86 878.785 3589.94 883.71 3583.86 883.71 3577.79 883.71 3572.86 878.785 3572.86 872.71 3572.86 866.635 3577.79 861.71 3583.86 861.71 3589.94 861.71 3594.86 866.635 3594.86 872.71Z" stroke="#70AD47" stroke-width="3.4375" stroke-linejoin="round" stroke-miterlimit="10" fill="#70AD47"/><path d="M3839.86 792.71C3839.86 798.785 3834.94 803.71 3828.86 803.71 3822.79 803.71 3817.86 798.785 3817.86 792.71 3817.86 786.635 3822.79 781.711 3828.86 781.711 3834.94 781.711 3839.86 786.635 3839.86 792.71Z" stroke="#70AD47" stroke-width="3.4375" stroke-linejoin="round" stroke-miterlimit="10" fill="#70AD47"/></g><g clip-path="url(#clip17)"><text fill="#595959" font-family="Calibri,Calibri_MSFontService,sans-serif" font-weight="400" font-size="41" transform="matrix(1 0 0 1 2454.24 1275)">0,0001</text></g><g clip-path="url(#clip18)"><text fill="#595959" font-family="Calibri,Calibri_MSFontService,sans-serif" font-weight="400" font-size="41" transform="matrix(1 0 0 1 2475.14 1200)">0,001</text></g><g clip-path="url(#clip19)"><text fill="#595959" font-family="Calibri,Calibri_MSFontService,sans-serif" font-weight="400" font-size="41" transform="matrix(1 0 0 1 2496.04 1125)">0,01</text></g><g clip-path="url(#clip20)"><text fill="#595959" font-family="Calibri,Calibri_MSFontService,sans-serif" font-weight="400" font-size="41" transform="matrix(1 0 0 1 2516.94 1049)">0,1</text></g><g clip-path="url(#clip21)"><text fill="#595959" font-family="Calibri,Calibri_MSFontService,sans-serif" font-weight="400" font-size="41" transform="matrix(1 0 0 1 2548.13 974)">1</text></g><g clip-path="url(#clip22)"><text fill="#595959" font-family="Calibri,Calibri_MSFontService,sans-serif" font-weight="400" font-size="41" transform="matrix(1 0 0 1 2527.23 899)">10</text></g><g clip-path="url(#clip23)"><text fill="#595959" font-family="Calibri,Calibri_MSFontService,sans-serif" font-weight="400" font-size="41" transform="matrix(1 0 0 1 2506.33 823)">100</text></g><g clip-path="url(#clip24)"><text fill="#595959" font-family="Calibri,Calibri_MSFontService,sans-serif" font-weight="400" font-size="41" transform="matrix(1 0 0 1 2485.43 748)">1000</text></g><g clip-path="url(#clip25)"><text fill="#595959" font-family="Calibri,Calibri_MSFontService,sans-serif" font-weight="400" font-size="41" transform="matrix(1 0 0 1 2586.4 1329)">10</text></g><g clip-path="url(#clip26)"><text fill="#595959" font-family="Calibri,Calibri_MSFontService,sans-serif" font-weight="400" font-size="41" transform="matrix(1 0 0 1 2820.11 1329)">100</text></g><g clip-path="url(#clip27)"><text fill="#595959" font-family="Calibri,Calibri_MSFontService,sans-serif" font-weight="400" font-size="41" transform="matrix(1 0 0 1 3053.82 1329)">1000</text></g><g clip-path="url(#clip28)"><text fill="#595959" font-family="Calibri,Calibri_MSFontService,sans-serif" font-weight="400" font-size="41" transform="matrix(1 0 0 1 3287.53 1329)">10000</text></g><g clip-path="url(#clip29)"><text fill="#595959" font-family="Calibri,Calibri_MSFontService,sans-serif" font-weight="400" font-size="41" transform="matrix(1 0 0 1 3521.24 1329)">100000</text></g><g clip-path="url(#clip30)"><text fill="#595959" font-family="Calibri,Calibri_MSFontService,sans-serif" font-weight="400" font-size="41" transform="matrix(1 0 0 1 3754.95 1329)">1000000</text></g><g clip-path="url(#clip31)"><text fill="#595959" font-family="Calibri,Calibri_MSFontService,sans-serif" font-weight="400" font-size="46" transform="matrix(6.12323e-17 -1 1 6.12323e-17 2407.65 1108)">Temps (ms)</text></g><g clip-path="url(#clip32)"><text fill="#595959" font-family="Calibri,Calibri_MSFontService,sans-serif" font-weight="400" font-size="46" transform="matrix(1 0 0 1 3063.38 1398)">Taille du vecteur</text></g><g clip-path="url(#clip33)"><text fill="#595959" font-family="Calibri,Calibri_MSFontService,sans-serif" font-weight="400" font-size="64" transform="matrix(1 0 0 1 2780.86 662)">Mesure temps : tri efficace</text></g><g clip-path="url(#clip34)"><path d="M2416.5 1506.5 2504.5 1506.5" stroke="#4472C4" stroke-width="6.875" stroke-linecap="round" stroke-linejoin="round" stroke-miterlimit="10" fill="none" fill-rule="evenodd"/></g><g clip-path="url(#clip35)"><path d="M2471 1506C2471 1512.07 2466.07 1517 2460 1517 2453.93 1517 2449 1512.07 2449 1506 2449 1499.92 2453.93 1495 2460 1495 2466.07 1495 2471 1499.92 2471 1506Z" stroke="#4472C4" stroke-width="3.4375" stroke-linejoin="round" stroke-miterlimit="10" fill="#4472C4"/></g><g clip-path="url(#clip36)"><text fill="#595959" font-family="Calibri,Calibri_MSFontService,sans-serif" font-weight="400" font-size="41" transform="matrix(1 0 0 1 2513.73 1518)">Base 1</text></g><g clip-path="url(#clip37)"><path d="M2648.5 1506.5 2736.5 1506.5" stroke="#ED7D31" stroke-width="6.875" stroke-linecap="round" stroke-linejoin="round" stroke-miterlimit="10" fill="none" fill-rule="evenodd"/></g><g clip-path="url(#clip38)"><path d="M2703 1506C2703 1512.07 2698.07 1517 2692 1517 2685.93 1517 2681 1512.07 2681 1506 2681 1499.92 2685.93 1495 2692 1495 2698.07 1495 2703 1499.92 2703 1506Z" stroke="#ED7D31" stroke-width="3.4375" stroke-linejoin="round" stroke-miterlimit="10" fill="#ED7D31"/></g><g clip-path="url(#clip39)"><text fill="#595959" font-family="Calibri,Calibri_MSFontService,sans-serif" font-weight="400" font-size="41" transform="matrix(1 0 0 1 2746.19 1518)">Base 2</text></g><g clip-path="url(#clip40)"><path d="M2881.5 1506.5 2969.5 1506.5" stroke="#A5A5A5" stroke-width="6.875" stroke-linecap="round" stroke-linejoin="round" stroke-miterlimit="10" fill="none" fill-rule="evenodd"/></g><g clip-path="url(#clip41)"><path d="M2936 1506C2936 1512.07 2931.08 1517 2925 1517 2918.93 1517 2914 1512.07 2914 1506 2914 1499.92 2918.93 1495 2925 1495 2931.08 1495 2936 1499.92 2936 1506Z" stroke="#A5A5A5" stroke-width="3.4375" stroke-linejoin="round" stroke-miterlimit="10" fill="#A5A5A5"/></g><g clip-path="url(#clip42)"><text fill="#595959" font-family="Calibri,Calibri_MSFontService,sans-serif" font-weight="400" font-size="41" transform="matrix(1 0 0 1 2978.66 1518)">Base 4</text></g><g clip-path="url(#clip43)"><path d="M3113.5 1506.5 3201.5 1506.5" stroke="#FFC000" stroke-width="6.875" stroke-linecap="round" stroke-linejoin="round" stroke-miterlimit="10" fill="none" fill-rule="evenodd"/></g><g clip-path="url(#clip44)"><path d="M3168.02 1506C3168.02 1512.07 3163.31 1517 3157.5 1517 3151.69 1517 3146.98 1512.07 3146.98 1506 3146.98 1499.92 3151.69 1495 3157.5 1495 3163.31 1495 3168.02 1499.92 3168.02 1506Z" stroke="#FFC000" stroke-width="3.4375" stroke-linejoin="round" stroke-miterlimit="10" fill="#FFC000"/></g><g clip-path="url(#clip45)"><text fill="#595959" font-family="Calibri,Calibri_MSFontService,sans-serif" font-weight="400" font-size="41" transform="matrix(1 0 0 1 3211.12 1518)">Base 8</text></g><g clip-path="url(#clip46)"><path d="M3346.5 1506.5 3434.5 1506.5" stroke="#5B9BD5" stroke-width="6.875" stroke-linecap="round" stroke-linejoin="round" stroke-miterlimit="10" fill="none" fill-rule="evenodd"/></g><g clip-path="url(#clip47)"><path d="M3401 1506C3401 1512.07 3396.07 1517 3390 1517 3383.92 1517 3379 1512.07 3379 1506 3379 1499.92 3383.92 1495 3390 1495 3396.07 1495 3401 1499.92 3401 1506Z" stroke="#5B9BD5" stroke-width="3.4375" stroke-linejoin="round" stroke-miterlimit="10" fill="#5B9BD5"/></g><g clip-path="url(#clip48)"><text fill="#595959" font-family="Calibri,Calibri_MSFontService,sans-serif" font-weight="400" font-size="41" transform="matrix(1 0 0 1 3443.59 1518)">Base 16</text></g><g clip-path="url(#clip49)"><path d="M3599.5 1506.5 3687.5 1506.5" stroke="#70AD47" stroke-width="6.875" stroke-linecap="round" stroke-linejoin="round" stroke-miterlimit="10" fill="none" fill-rule="evenodd"/></g><g clip-path="url(#clip50)"><path d="M3654 1506C3654 1512.07 3649.07 1517 3643 1517 3636.92 1517 3632 1512.07 3632 1506 3632 1499.92 3636.92 1495 3643 1495 3649.07 1495 3654 1499.92 3654 1506Z" stroke="#70AD47" stroke-width="3.4375" stroke-linejoin="round" stroke-miterlimit="10" fill="#70AD47"/></g><g clip-path="url(#clip51)"><text fill="#595959" font-family="Calibri,Calibri_MSFontService,sans-serif" font-weight="400" font-size="41" transform="matrix(1 0 0 1 3696.95 1518)">Tri rapide</text></g><rect x="2306.5" y="566.5" width="1646" height="1006" stroke="#D9D9D9" stroke-width="3.4375" stroke-linejoin="round" stroke-miterlimit="10" fill="none"/></g></svg>