<svg width="3150" height="1990" xmlns="http://www.w3.org/2000/svg" xmlns:xlink="http://www.w3.org/1999/xlink" xml:space="preserve" overflow="hidden"><defs><clipPath id="clip0"><rect x="172" y="53" width="3150" height="1990"/></clipPath><clipPath id="clip1"><rect x="172" y="54" width="3147" height="1986"/></clipPath><clipPath id="clip2"><rect x="172" y="54" width="3147" height="1986"/></clipPath><clipPath id="clip3"><rect x="525" y="224" width="2695" height="1512"/></clipPath><clipPath id="clip4"><rect x="172" y="54" width="3147" height="1986"/></clipPath><clipPath id="clip5"><rect x="525" y="224" width="2695" height="1512"/></clipPath><clipPath id="clip6"><rect x="172" y="54" width="3147" height="1986"/></clipPath><clipPath id="clip7"><rect x="525" y="224" width="2695" height="1512"/></clipPath><clipPath id="clip8"><rect x="172" y="54" width="3147" height="1986"/></clipPath><clipPath id="clip9"><rect x="525" y="224" width="2695" height="1512"/></clipPath><clipPath id="clip10"><rect x="172" y="54" width="3147" height="1986"/></clipPath><clipPath id="clip11"><rect x="172" y="54" width="3147" height="1986"/></clipPath><clipPath id="clip12"><rect x="172" y="54" width="3147" height="1986"/></clipPath><clipPath id="clip13"><rect x="172" y="54" width="3147" height="1986"/></clipPath><clipPath id="clip14"><rect x="172" y="54" width="3147" height="1986"/></clipPath><clipPath id="clip15"><rect x="172" y="54" width="3147" height="1986"/></clipPath><clipPath id="clip16"><rect x="172" y="54" width="3147" height="1986"/></clipPath><clipPath id="clip17"><rect x="172" y="54" width="3147" height="1986"/></clipPath><clipPath id="clip18"><rect x="172" y="54" width="3147" height="1986"/></clipPath><clipPath id="clip19"><rect x="172" y="54" width="3147" height="1986"/></clipPath><clipPath id="clip20"><rect x="172" y="54" width="3147" height="1986"/></clipPath><clipPath id="clip21"><rect x="172" y="54" width="3147" height="1986"/></clipPath><clipPath id="clip22"><rect x="172" y="54" width="3147" height="1986"/></clipPath><clipPath id="clip23"><rect x="172" y="54" width="3147" height="1986"/></clipPath><clipPath id="clip24"><rect x="172" y="54" width="3147" height="1986"/></clipPath><clipPath id="clip25"><rect x="172" y="54" width="3147" height="1986"/></clipPath><clipPath id="clip26"><rect x="172" y="54" width="3147" height="1986"/></clipPath><clipPath id="clip27"><rect x="172" y="54" width="3147" height="1986"/></clipPath><clipPath id="clip28"><rect x="172" y="54" width="3147" height="1986"/></clipPath><clipPath id="clip29"><rect x="172" y="54" width="3147" height="1986"/></clipPath><clipPath id="clip30"><rect x="172" y="54" width="3147" height="1986"/></clipPath><clipPath id="clip31"><rect x="172" y="54" width="3147" height="1986"/></clipPath><clipPath id="clip32"><rect x="172" y="54" width="3147" height="1986"/></clipPath><clipPath id="clip33"><rect x="172" y="54" width="3147" height="1986"/></clipPath><clipPath id="clip34"><rect x="172" y="54" width="3147" height="1986"/></clipPath><clipPath id="clip35"><rect x="172" y="54" width="3147" height="1986"/></clipPath><clipPath id="clip36"><rect x="172" y="54" width="3147" height="1986"/></clipPath><clipPath id="clip37"><rect x="172" y="54" width="3147" height="1986"/></clipPath><clipPath id="clip38"><rect x="172" y="54" width="3147" height="1986"/></clipPath></defs><g clip-path="url(#clip0)" transform="translate(-172 -53)"><rect x="173" y="54" width="3147" height="1987" fill="#FFFFFF"/><g clip-path="url(#clip1)"><path d="M525.5 1543.55 3217.5 1543.55M525.5 1355.54 3217.5 1355.54M525.5 1166.54 3217.5 1166.54M525.5 978.532 3217.5 978.532M525.5 789.526 3217.5 789.526M525.5 601.52 3217.5 601.52M525.5 412.514 3217.5 412.514M525.5 224.5 3217.5 224.5" stroke="#D9D9D9" stroke-width="3.4375" stroke-linejoin="round" stroke-miterlimit="10" fill="none"/></g><g clip-path="url(#clip2)"><path d="M525.5 1732.5 3217.5 1732.5" stroke="#D9D9D9" stroke-width="3.4375" stroke-linejoin="round" stroke-miterlimit="10" fill="none" fill-rule="evenodd"/></g><g clip-path="url(#clip3)"><path d="M526 1496 1423.05 1299.04 2320.08 1110.04 3217 922" stroke="#4472C4" stroke-width="10.3125" stroke-linecap="round" stroke-linejoin="round" stroke-miterlimit="10" fill="none"/></g><g clip-path="url(#clip4)"><path d="M536.02 1495.51C536.02 1501.58 531.095 1506.51 525.02 1506.51 518.946 1506.51 514.021 1501.58 514.021 1495.51 514.021 1489.43 518.946 1484.51 525.02 1484.51 531.095 1484.51 536.02 1489.43 536.02 1495.51Z" stroke="#4472C4" stroke-width="3.4375" stroke-linejoin="round" stroke-miterlimit="10" fill="#4472C4"/><path d="M1433.02 1299.51C1433.02 1305.58 1428.1 1310.51 1422.02 1310.51 1415.95 1310.51 1411.02 1305.58 1411.02 1299.51 1411.02 1293.43 1415.95 1288.51 1422.02 1288.51 1428.1 1288.51 1433.02 1293.43 1433.02 1299.51Z" stroke="#4472C4" stroke-width="3.4375" stroke-linejoin="round" stroke-miterlimit="10" fill="#4472C4"/><path d="M2331.02 1110.51C2331.02 1116.58 2326.1 1121.51 2320.02 1121.51 2313.95 1121.51 2309.02 1116.58 2309.02 1110.51 2309.02 1104.43 2313.95 1099.51 2320.02 1099.51 2326.1 1099.51 2331.02 1104.43 2331.02 1110.51Z" stroke="#4472C4" stroke-width="3.4375" stroke-linejoin="round" stroke-miterlimit="10" fill="#4472C4"/><path d="M3228.02 921.505C3228.02 927.58 3223.1 932.505 3217.02 932.505 3210.95 932.505 3206.02 927.58 3206.02 921.505 3206.02 915.431 3210.95 910.506 3217.02 910.506 3223.1 910.506 3228.02 915.431 3228.02 921.505Z" stroke="#4472C4" stroke-width="3.4375" stroke-linejoin="round" stroke-miterlimit="10" fill="#4472C4"/></g><g clip-path="url(#clip5)"><path d="M526 1381 1423.05 1031.03 2320.08 657.022 3217 281" stroke="#ED7D31" stroke-width="10.3125" stroke-linecap="round" stroke-linejoin="round" stroke-miterlimit="10" fill="none"/></g><g clip-path="url(#clip6)"><path d="M536.02 1381.51C536.02 1387.58 531.095 1392.51 525.02 1392.51 518.946 1392.51 514.021 1387.58 514.021 1381.51 514.021 1375.43 518.946 1370.51 525.02 1370.51 531.095 1370.51 536.02 1375.43 536.02 1381.51Z" stroke="#ED7D31" stroke-width="3.4375" stroke-linejoin="round" stroke-miterlimit="10" fill="#ED7D31"/><path d="M1433.02 1031.51C1433.02 1037.58 1428.1 1042.51 1422.02 1042.51 1415.95 1042.51 1411.02 1037.58 1411.02 1031.51 1411.02 1025.43 1415.95 1020.51 1422.02 1020.51 1428.1 1020.51 1433.02 1025.43 1433.02 1031.51Z" stroke="#ED7D31" stroke-width="3.4375" stroke-linejoin="round" stroke-miterlimit="10" fill="#ED7D31"/><path d="M2331.02 657.505C2331.02 663.58 2326.1 668.505 2320.02 668.505 2313.95 668.505 2309.02 663.58 2309.02 657.505 2309.02 651.431 2313.95 646.506 2320.02 646.506 2326.1 646.506 2331.02 651.431 2331.02 657.505Z" stroke="#ED7D31" stroke-width="3.4375" stroke-linejoin="round" stroke-miterlimit="10" fill="#ED7D31"/><path d="M3228.02 280.505C3228.02 286.58 3223.1 291.505 3217.02 291.505 3210.95 291.505 3206.02 286.58 3206.02 280.505 3206.02 274.43 3210.95 269.506 3217.02 269.506 3223.1 269.506 3228.02 274.43 3228.02 280.505Z" stroke="#ED7D31" stroke-width="3.4375" stroke-linejoin="round" stroke-miterlimit="10" fill="#ED7D31"/></g><g clip-path="url(#clip7)"><path d="M526 1401 1423.05 1077.04 2320.08 714.023 3217 338" stroke="#A5A5A5" stroke-width="10.3125" stroke-linecap="round" stroke-linejoin="round" stroke-miterlimit="10" fill="none"/></g><g clip-path="url(#clip8)"><path d="M536.02 1401.51C536.02 1407.58 531.095 1412.51 525.02 1412.51 518.946 1412.51 514.021 1407.58 514.021 1401.51 514.021 1395.43 518.946 1390.51 525.02 1390.51 531.095 1390.51 536.02 1395.43 536.02 1401.51Z" stroke="#A5A5A5" stroke-width="3.4375" stroke-linejoin="round" stroke-miterlimit="10" fill="#A5A5A5"/><path d="M1433.02 1076.51C1433.02 1082.58 1428.1 1087.51 1422.02 1087.51 1415.95 1087.51 1411.02 1082.58 1411.02 1076.51 1411.02 1070.43 1415.95 1065.51 1422.02 1065.51 1428.1 1065.51 1433.02 1070.43 1433.02 1076.51Z" stroke="#A5A5A5" stroke-width="3.4375" stroke-linejoin="round" stroke-miterlimit="10" fill="#A5A5A5"/><path d="M2331.02 713.506C2331.02 719.581 2326.1 724.505 2320.02 724.505 2313.95 724.505 2309.02 719.581 2309.02 713.506 2309.02 707.431 2313.95 702.506 2320.02 702.506 2326.1 702.506 2331.02 707.431 2331.02 713.506Z" stroke="#A5A5A5" stroke-width="3.4375" stroke-linejoin="round" stroke-miterlimit="10" fill="#A5A5A5"/><path d="M3228.02 338.506C3228.02 344.58 3223.1 349.505 3217.02 349.505 3210.95 349.505 3206.02 344.58 3206.02 338.506 3206.02 332.431 3210.95 327.506 3217.02 327.506 3223.1 327.506 3228.02 332.431 3228.02 338.506Z" stroke="#A5A5A5" stroke-width="3.4375" stroke-linejoin="round" stroke-miterlimit="10" fill="#A5A5A5"/></g><g clip-path="url(#clip9)"><path d="M526 1417 1423.05 1167.04 2320.08 837.027 3217 467" stroke="#FFC000" stroke-width="10.3125" stroke-linecap="round" stroke-linejoin="round" stroke-miterlimit="10" fill="none"/></g><g clip-path="url(#clip10)"><path d="M536.02 1417.51C536.02 1423.58 531.095 1428.51 525.02 1428.51 518.946 1428.51 514.021 1423.58 514.021 1417.51 514.021 1411.43 518.946 1406.51 525.02 1406.51 531.095 1406.51 536.02 1411.43 536.02 1417.51Z" stroke="#FFC000" stroke-width="3.4375" stroke-linejoin="round" stroke-miterlimit="10" fill="#FFC000"/><path d="M1433.02 1167.51C1433.02 1173.58 1428.1 1178.51 1422.02 1178.51 1415.95 1178.51 1411.02 1173.58 1411.02 1167.51 1411.02 1161.43 1415.95 1156.51 1422.02 1156.51 1428.1 1156.51 1433.02 1161.43 1433.02 1167.51Z" stroke="#FFC000" stroke-width="3.4375" stroke-linejoin="round" stroke-miterlimit="10" fill="#FFC000"/><path d="M2331.02 837.505C2331.02 843.58 2326.1 848.505 2320.02 848.505 2313.95 848.505 2309.02 843.58 2309.02 837.505 2309.02 831.43 2313.95 826.506 2320.02 826.506 2326.1 826.506 2331.02 831.43 2331.02 837.505Z" stroke="#FFC000" stroke-width="3.4375" stroke-linejoin="round" stroke-miterlimit="10" fill="#FFC000"/><path d="M3228.02 467.505C3228.02 473.58 3223.1 478.505 3217.02 478.505 3210.95 478.505 3206.02 473.58 3206.02 467.505 3206.02 461.43 3210.95 456.506 3217.02 456.506 3223.1 456.506 3228.02 461.43 3228.02 467.505Z" stroke="#FFC000" stroke-width="3.4375" stroke-linejoin="round" stroke-miterlimit="10" fill="#FFC000"/></g><g clip-path="url(#clip11)"><text fill="#595959" font-family="Calibri,Calibri_MSFontService,sans-serif" font-weight="400" font-size="41" transform="matrix(1 0 0 1 466.702 1744)">1</text></g><g clip-path="url(#clip12)"><text fill="#595959" font-family="Calibri,Calibri_MSFontService,sans-serif" font-weight="400" font-size="41" transform="matrix(1 0 0 1 445.802 1556)">10</text></g><g clip-path="url(#clip13)"><text fill="#595959" font-family="Calibri,Calibri_MSFontService,sans-serif" font-weight="400" font-size="41" transform="matrix(1 0 0 1 424.902 1367)">100</text></g><g clip-path="url(#clip14)"><text fill="#595959" font-family="Calibri,Calibri_MSFontService,sans-serif" font-weight="400" font-size="41" transform="matrix(1 0 0 1 404.002 1178)">1000</text></g><g clip-path="url(#clip15)"><text fill="#595959" font-family="Calibri,Calibri_MSFontService,sans-serif" font-weight="400" font-size="41" transform="matrix(1 0 0 1 383.102 990)">10000</text></g><g clip-path="url(#clip16)"><text fill="#595959" font-family="Calibri,Calibri_MSFontService,sans-serif" font-weight="400" font-size="41" transform="matrix(1 0 0 1 362.202 801)">100000</text></g><g clip-path="url(#clip17)"><text fill="#595959" font-family="Calibri,Calibri_MSFontService,sans-serif" font-weight="400" font-size="41" transform="matrix(1 0 0 1 341.302 613)">1000000</text></g><g clip-path="url(#clip18)"><text fill="#595959" font-family="Calibri,Calibri_MSFontService,sans-serif" font-weight="400" font-size="41" transform="matrix(1 0 0 1 320.402 424)">10000000</text></g><g clip-path="url(#clip19)"><text fill="#595959" font-family="Calibri,Calibri_MSFontService,sans-serif" font-weight="400" font-size="41" transform="matrix(1 0 0 1 299.502 236)">100000000</text></g><g clip-path="url(#clip20)"><text fill="#595959" font-family="Calibri,Calibri_MSFontService,sans-serif" font-weight="400" font-size="41" transform="matrix(1 0 0 1 504.969 1798)">10</text></g><g clip-path="url(#clip21)"><text fill="#595959" font-family="Calibri,Calibri_MSFontService,sans-serif" font-weight="400" font-size="41" transform="matrix(1 0 0 1 1391.63 1798)">100</text></g><g clip-path="url(#clip22)"><text fill="#595959" font-family="Calibri,Calibri_MSFontService,sans-serif" font-weight="400" font-size="41" transform="matrix(1 0 0 1 2278.3 1798)">1000</text></g><g clip-path="url(#clip23)"><text fill="#595959" font-family="Calibri,Calibri_MSFontService,sans-serif" font-weight="400" font-size="41" transform="matrix(1 0 0 1 3164.96 1798)">10000</text></g><g clip-path="url(#clip24)"><text fill="#595959" font-family="Calibri,Calibri_MSFontService,sans-serif" font-weight="400" font-size="46" transform="matrix(6.12323e-17 -1 1 6.12323e-17 273.812 1188)">Nombre d'affectations</text></g><g clip-path="url(#clip25)"><text fill="#595959" font-family="Calibri,Calibri_MSFontService,sans-serif" font-weight="400" font-size="46" transform="matrix(1 0 0 1 1746.48 1867)">Taille vecteur</text></g><g clip-path="url(#clip26)"><text fill="#595959" font-family="Calibri,Calibri_MSFontService,sans-serif" font-weight="400" font-size="64" transform="matrix(1 0 0 1 1341.89 149)">Tri par insertion par affectation</text></g><g clip-path="url(#clip27)"><path d="M1117 1975 1205 1975" stroke="#4472C4" stroke-width="10.3125" stroke-linecap="round" stroke-linejoin="round" stroke-miterlimit="10" fill="none" fill-rule="evenodd"/></g><g clip-path="url(#clip28)"><path d="M1172 1974C1172 1980.07 1167.08 1985 1161 1985 1154.93 1985 1150 1980.07 1150 1974 1150 1967.92 1154.93 1963 1161 1963 1167.08 1963 1172 1967.92 1172 1974Z" stroke="#4472C4" stroke-width="3.4375" stroke-linejoin="round" stroke-miterlimit="10" fill="#4472C4"/></g><g clip-path="url(#clip29)"><text fill="#595959" font-family="Calibri,Calibri_MSFontService,sans-serif" font-weight="400" font-size="41" transform="matrix(1 0 0 1 1214.49 1986)">Croissant</text></g><g clip-path="url(#clip30)"><path d="M1428 1975 1516 1975" stroke="#ED7D31" stroke-width="10.3125" stroke-linecap="round" stroke-linejoin="round" stroke-miterlimit="10" fill="none" fill-rule="evenodd"/></g><g clip-path="url(#clip31)"><path d="M1483 1974C1483 1980.07 1478.08 1985 1472 1985 1465.93 1985 1461 1980.07 1461 1974 1461 1967.92 1465.93 1963 1472 1963 1478.08 1963 1483 1967.92 1483 1974Z" stroke="#ED7D31" stroke-width="3.4375" stroke-linejoin="round" stroke-miterlimit="10" fill="#ED7D31"/></g><g clip-path="url(#clip32)"><text fill="#595959" font-family="Calibri,Calibri_MSFontService,sans-serif" font-weight="400" font-size="41" transform="matrix(1 0 0 1 1525.57 1986)">Décroissant</text></g><g clip-path="url(#clip33)"><path d="M1781 1975 1869 1975" stroke="#A5A5A5" stroke-width="10.3125" stroke-linecap="round" stroke-linejoin="round" stroke-miterlimit="10" fill="none" fill-rule="evenodd"/></g><g clip-path="url(#clip34)"><path d="M1835 1974C1835 1980.07 1830.08 1985 1824 1985 1817.93 1985 1813 1980.07 1813 1974 1813 1967.92 1817.93 1963 1824 1963 1830.08 1963 1835 1967.92 1835 1974Z" stroke="#A5A5A5" stroke-width="3.4375" stroke-linejoin="round" stroke-miterlimit="10" fill="#A5A5A5"/></g><g clip-path="url(#clip35)"><text fill="#595959" font-family="Calibri,Calibri_MSFontService,sans-serif" font-weight="400" font-size="41" transform="matrix(1 0 0 1 1878 1986)">Aléatoire</text></g><g clip-path="url(#clip36)"><path d="M2090 1975 2178 1975" stroke="#FFC000" stroke-width="10.3125" stroke-linecap="round" stroke-linejoin="round" stroke-miterlimit="10" fill="none" fill-rule="evenodd"/></g><g clip-path="url(#clip37)"><path d="M2145.02 1974C2145.02 1980.07 2140.31 1985 2134.5 1985 2128.69 1985 2123.98 1980.07 2123.98 1974 2123.98 1967.92 2128.69 1963 2134.5 1963 2140.31 1963 2145.02 1967.92 2145.02 1974Z" stroke="#FFC000" stroke-width="3.4375" stroke-linejoin="round" stroke-miterlimit="10" fill="#FFC000"/></g><g clip-path="url(#clip38)"><text fill="#595959" font-family="Calibri,Calibri_MSFontService,sans-serif" font-weight="400" font-size="41" transform="matrix(1 0 0 1 2187.55 1986)">Presque trié</text></g><rect x="173.5" y="54.5002" width="3147" height="1987" stroke="#D9D9D9" stroke-width="3.4375" stroke-linejoin="round" stroke-miterlimit="10" fill="none"/></g></svg>