<svg width="3150" height="1990" xmlns="http://www.w3.org/2000/svg" xmlns:xlink="http://www.w3.org/1999/xlink" xml:space="preserve" overflow="hidden"><defs><clipPath id="clip0"><rect x="172" y="53" width="3150" height="1990"/></clipPath><clipPath id="clip1"><rect x="172" y="54" width="3147" height="1986"/></clipPath><clipPath id="clip2"><rect x="172" y="54" width="3147" height="1986"/></clipPath><clipPath id="clip3"><rect x="463" y="224" width="2757" height="1512"/></clipPath><clipPath id="clip4"><rect x="172" y="54" width="3147" height="1986"/></clipPath><clipPath id="clip5"><rect x="463" y="224" width="2757" height="1512"/></clipPath><clipPath id="clip6"><rect x="172" y="54" width="3147" height="1986"/></clipPath><clipPath id="clip7"><rect x="463" y="224" width="2757" height="1512"/></clipPath><clipPath id="clip8"><rect x="172" y="54" width="3147" height="1986"/></clipPath><clipPath id="clip9"><rect x="463" y="224" width="2757" height="1512"/></clipPath><clipPath id="clip10"><rect x="172" y="54" width="3147" height="1986"/></clipPath><clipPath id="clip11"><rect x="172" y="54" width="3147" height="1986"/></clipPath><clipPath id="clip12"><rect x="172" y="54" width="3147" height="1986"/></clipPath><clipPath id="clip13"><rect x="172" y="54" width="3147" height="1986"/></clipPath><clipPath id="clip14"><rect x="172" y="54" width="3147" height="1986"/></clipPath><clipPath id="clip15"><rect x="172" y="54" width="3147" height="1986"/></clipPath><clipPath id="clip16"><rect x="172" y="54" width="3147" height="1986"/></clipPath><clipPath id="clip17"><rect x="172" y="54" width="3147" height="1986"/></clipPath><clipPath id="clip18"><rect x="172" y="54" width="3147" height="1986"/></clipPath><clipPath id="clip19"><rect x="172" y="54" width="3147" height="1986"/></clipPath><clipPath id="clip20"><rect x="172" y="54" width="3147" height="1986"/></clipPath><clipPath id="clip21"><rect x="172" y="54" width="3147" height="1986"/></clipPath><clipPath id="clip22"><rect x="172" y="54" width="3147" height="1986"/></clipPath><clipPath id="clip23"><rect x="172" y="54" width="3147" height="1986"/></clipPath><clipPath id="clip24"><rect x="172" y="54" width="3147" height="1986"/></clipPath><clipPath id="clip25"><rect x="172" y="54" width="3147" height="1986"/></clipPath><clipPath id="clip26"><rect x="172" y="54" width="3147" height="1986"/></clipPath><clipPath id="clip27"><rect x="172" y="54" width="3147" height="1986"/></clipPath><clipPath id="clip28"><rect x="172" y="54" width="3147" height="1986"/></clipPath><clipPath id="clip29"><rect x="172" y="54" width="3147" height="1986"/></clipPath><clipPath id="clip30"><rect x="172" y="54" width="3147" height="1986"/></clipPath><clipPath id="clip31"><rect x="172" y="54" width="3147" height="1986"/></clipPath><clipPath id="clip32"><rect x="172" y="54" width="3147" height="1986"/></clipPath><clipPath id="clip33"><rect x="172" y="54" width="3147" height="1986"/></clipPath><clipPath id="clip34"><rect x="172" y="54" width="3147" height="1986"/></clipPath><clipPath id="clip35"><rect x="172" y="54" width="3147" height="1986"/></clipPath></defs><g clip-path="url(#clip0)" transform="translate(-172 -53)"><rect x="173" y="54" width="3147" height="1987" fill="#FFFFFF"/><g clip-path="url(#clip1)"><path d="M463.5 1430.55 3217.5 1430.55M463.5 1129.54 3217.5 1129.54M463.5 827.527 3217.5 827.527M463.5 525.517 3217.5 525.517M463.5 224.5 3217.5 224.5" stroke="#D9D9D9" stroke-width="3.4375" stroke-linejoin="round" stroke-miterlimit="10" fill="none"/></g><g clip-path="url(#clip2)"><path d="M463.5 1732.5 3217.5 1732.5" stroke="#D9D9D9" stroke-width="3.4375" stroke-linejoin="round" stroke-miterlimit="10" fill="none" fill-rule="evenodd"/></g><g clip-path="url(#clip3)"><path d="M463 1340 1381.05 1038.03 2299.08 737.024 3217 435" stroke="#4472C4" stroke-width="10.3125" stroke-linecap="round" stroke-linejoin="round" stroke-miterlimit="10" fill="none"/></g><g clip-path="url(#clip4)"><path d="M474.02 1340.51C474.02 1346.58 469.095 1351.51 463.02 1351.51 456.945 1351.51 452.021 1346.58 452.021 1340.51 452.021 1334.43 456.945 1329.51 463.02 1329.51 469.095 1329.51 474.02 1334.43 474.02 1340.51Z" stroke="#4472C4" stroke-width="3.4375" stroke-linejoin="round" stroke-miterlimit="10" fill="#4472C4"/><path d="M1392.02 1038.51C1392.02 1044.58 1387.1 1049.51 1381.02 1049.51 1374.95 1049.51 1370.02 1044.58 1370.02 1038.51 1370.02 1032.43 1374.95 1027.51 1381.02 1027.51 1387.1 1027.51 1392.02 1032.43 1392.02 1038.51Z" stroke="#4472C4" stroke-width="3.4375" stroke-linejoin="round" stroke-miterlimit="10" fill="#4472C4"/><path d="M2310.02 736.506C2310.02 742.581 2305.1 747.505 2299.02 747.505 2292.95 747.505 2288.02 742.581 2288.02 736.506 2288.02 730.431 2292.95 725.506 2299.02 725.506 2305.1 725.506 2310.02 730.431 2310.02 736.506Z" stroke="#4472C4" stroke-width="3.4375" stroke-linejoin="round" stroke-miterlimit="10" fill="#4472C4"/><path d="M3228.02 434.505C3228.02 440.58 3223.1 445.505 3217.02 445.505 3210.95 445.505 3206.02 440.58 3206.02 434.505 3206.02 428.43 3210.95 423.506 3217.02 423.506 3223.1 423.506 3228.02 428.43 3228.02 434.505Z" stroke="#4472C4" stroke-width="3.4375" stroke-linejoin="round" stroke-miterlimit="10" fill="#4472C4"/></g><g clip-path="url(#clip5)"><path d="M463 1287 1381.05 985.032 2299.08 683.022 3217 382" stroke="#ED7D31" stroke-width="10.3125" stroke-linecap="round" stroke-linejoin="round" stroke-miterlimit="10" fill="none"/></g><g clip-path="url(#clip6)"><path d="M474.02 1286.51C474.02 1292.58 469.095 1297.51 463.02 1297.51 456.945 1297.51 452.021 1292.58 452.021 1286.51 452.021 1280.43 456.945 1275.51 463.02 1275.51 469.095 1275.51 474.02 1280.43 474.02 1286.51Z" stroke="#ED7D31" stroke-width="3.4375" stroke-linejoin="round" stroke-miterlimit="10" fill="#ED7D31"/><path d="M1392.02 985.505C1392.02 991.58 1387.1 996.505 1381.02 996.505 1374.95 996.505 1370.02 991.58 1370.02 985.505 1370.02 979.431 1374.95 974.506 1381.02 974.506 1387.1 974.506 1392.02 979.431 1392.02 985.505Z" stroke="#ED7D31" stroke-width="3.4375" stroke-linejoin="round" stroke-miterlimit="10" fill="#ED7D31"/><path d="M2310.02 683.505C2310.02 689.58 2305.1 694.505 2299.02 694.505 2292.95 694.505 2288.02 689.58 2288.02 683.505 2288.02 677.43 2292.95 672.506 2299.02 672.506 2305.1 672.506 2310.02 677.43 2310.02 683.505Z" stroke="#ED7D31" stroke-width="3.4375" stroke-linejoin="round" stroke-miterlimit="10" fill="#ED7D31"/><path d="M3228.02 381.505C3228.02 387.58 3223.1 392.505 3217.02 392.505 3210.95 392.505 3206.02 387.58 3206.02 381.505 3206.02 375.431 3210.95 370.506 3217.02 370.506 3223.1 370.506 3228.02 375.431 3228.02 381.505Z" stroke="#ED7D31" stroke-width="3.4375" stroke-linejoin="round" stroke-miterlimit="10" fill="#ED7D31"/></g><g clip-path="url(#clip7)"><path d="M463 1256 1381.05 948.031 2299.08 646.021 3217 344" stroke="#A5A5A5" stroke-width="10.3125" stroke-linecap="round" stroke-linejoin="round" stroke-miterlimit="10" fill="none"/></g><g clip-path="url(#clip8)"><path d="M474.02 1255.51C474.02 1261.58 469.095 1266.51 463.02 1266.51 456.945 1266.51 452.021 1261.58 452.021 1255.51 452.021 1249.43 456.945 1244.51 463.02 1244.51 469.095 1244.51 474.02 1249.43 474.02 1255.51Z" stroke="#A5A5A5" stroke-width="3.4375" stroke-linejoin="round" stroke-miterlimit="10" fill="#A5A5A5"/><path d="M1392.02 948.505C1392.02 954.58 1387.1 959.505 1381.02 959.505 1374.95 959.505 1370.02 954.58 1370.02 948.505 1370.02 942.43 1374.95 937.506 1381.02 937.506 1387.1 937.506 1392.02 942.43 1392.02 948.505Z" stroke="#A5A5A5" stroke-width="3.4375" stroke-linejoin="round" stroke-miterlimit="10" fill="#A5A5A5"/><path d="M2310.02 645.505C2310.02 651.58 2305.1 656.505 2299.02 656.505 2292.95 656.505 2288.02 651.58 2288.02 645.505 2288.02 639.431 2292.95 634.506 2299.02 634.506 2305.1 634.506 2310.02 639.431 2310.02 645.505Z" stroke="#A5A5A5" stroke-width="3.4375" stroke-linejoin="round" stroke-miterlimit="10" fill="#A5A5A5"/><path d="M3228.02 344.505C3228.02 350.58 3223.1 355.505 3217.02 355.505 3210.95 355.505 3206.02 350.58 3206.02 344.505 3206.02 338.43 3210.95 333.506 3217.02 333.506 3223.1 333.506 3228.02 338.43 3228.02 344.505Z" stroke="#A5A5A5" stroke-width="3.4375" stroke-linejoin="round" stroke-miterlimit="10" fill="#A5A5A5"/></g><g clip-path="url(#clip9)"><path d="M463 1225 1381.05 919.03 2299.08 617.02 3217 315" stroke="#FFC000" stroke-width="10.3125" stroke-linecap="round" stroke-linejoin="round" stroke-miterlimit="10" fill="none"/></g><g clip-path="url(#clip10)"><path d="M474.02 1225.51C474.02 1231.58 469.095 1236.51 463.02 1236.51 456.945 1236.51 452.021 1231.58 452.021 1225.51 452.021 1219.43 456.945 1214.51 463.02 1214.51 469.095 1214.51 474.02 1219.43 474.02 1225.51Z" stroke="#FFC000" stroke-width="3.4375" stroke-linejoin="round" stroke-miterlimit="10" fill="#FFC000"/><path d="M1392.02 918.505C1392.02 924.58 1387.1 929.505 1381.02 929.505 1374.95 929.505 1370.02 924.58 1370.02 918.505 1370.02 912.43 1374.95 907.506 1381.02 907.506 1387.1 907.506 1392.02 912.43 1392.02 918.505Z" stroke="#FFC000" stroke-width="3.4375" stroke-linejoin="round" stroke-miterlimit="10" fill="#FFC000"/><path d="M2310.02 616.506C2310.02 622.581 2305.1 627.505 2299.02 627.505 2292.95 627.505 2288.02 622.581 2288.02 616.506 2288.02 610.431 2292.95 605.506 2299.02 605.506 2305.1 605.506 2310.02 610.431 2310.02 616.506Z" stroke="#FFC000" stroke-width="3.4375" stroke-linejoin="round" stroke-miterlimit="10" fill="#FFC000"/><path d="M3228.02 314.505C3228.02 320.58 3223.1 325.505 3217.02 325.505 3210.95 325.505 3206.02 320.58 3206.02 314.505 3206.02 308.431 3210.95 303.506 3217.02 303.506 3223.1 303.506 3228.02 308.431 3228.02 314.505Z" stroke="#FFC000" stroke-width="3.4375" stroke-linejoin="round" stroke-miterlimit="10" fill="#FFC000"/></g><g clip-path="url(#clip11)"><text fill="#595959" font-family="Calibri,Calibri_MSFontService,sans-serif" font-weight="400" font-size="41" transform="matrix(1 0 0 1 404.002 1744)">1</text></g><g clip-path="url(#clip12)"><text fill="#595959" font-family="Calibri,Calibri_MSFontService,sans-serif" font-weight="400" font-size="41" transform="matrix(1 0 0 1 383.102 1442)">10</text></g><g clip-path="url(#clip13)"><text fill="#595959" font-family="Calibri,Calibri_MSFontService,sans-serif" font-weight="400" font-size="41" transform="matrix(1 0 0 1 362.202 1141)">100</text></g><g clip-path="url(#clip14)"><text fill="#595959" font-family="Calibri,Calibri_MSFontService,sans-serif" font-weight="400" font-size="41" transform="matrix(1 0 0 1 341.302 839)">1000</text></g><g clip-path="url(#clip15)"><text fill="#595959" font-family="Calibri,Calibri_MSFontService,sans-serif" font-weight="400" font-size="41" transform="matrix(1 0 0 1 320.402 537)">10000</text></g><g clip-path="url(#clip16)"><text fill="#595959" font-family="Calibri,Calibri_MSFontService,sans-serif" font-weight="400" font-size="41" transform="matrix(1 0 0 1 299.502 236)">100000</text></g><g clip-path="url(#clip17)"><text fill="#595959" font-family="Calibri,Calibri_MSFontService,sans-serif" font-weight="400" font-size="41" transform="matrix(1 0 0 1 442.269 1798)">10</text></g><g clip-path="url(#clip18)"><text fill="#595959" font-family="Calibri,Calibri_MSFontService,sans-serif" font-weight="400" font-size="41" transform="matrix(1 0 0 1 1349.83 1798)">100</text></g><g clip-path="url(#clip19)"><text fill="#595959" font-family="Calibri,Calibri_MSFontService,sans-serif" font-weight="400" font-size="41" transform="matrix(1 0 0 1 2257.4 1798)">1000</text></g><g clip-path="url(#clip20)"><text fill="#595959" font-family="Calibri,Calibri_MSFontService,sans-serif" font-weight="400" font-size="41" transform="matrix(1 0 0 1 3164.96 1798)">10000</text></g><g clip-path="url(#clip21)"><text fill="#595959" font-family="Calibri,Calibri_MSFontService,sans-serif" font-weight="400" font-size="46" transform="matrix(6.12323e-17 -1 1 6.12323e-17 273.812 1188)">Nombre d'affectations</text></g><g clip-path="url(#clip22)"><text fill="#595959" font-family="Calibri,Calibri_MSFontService,sans-serif" font-weight="400" font-size="46" transform="matrix(1 0 0 1 1715.13 1867)">Taille vecteur</text></g><g clip-path="url(#clip23)"><text fill="#595959" font-family="Calibri,Calibri_MSFontService,sans-serif" font-weight="400" font-size="64" transform="matrix(1 0 0 1 1340.4 149)">Tri par sélection par affectation</text></g><g clip-path="url(#clip24)"><path d="M1117 1975 1205 1975" stroke="#4472C4" stroke-width="10.3125" stroke-linecap="round" stroke-linejoin="round" stroke-miterlimit="10" fill="none" fill-rule="evenodd"/></g><g clip-path="url(#clip25)"><path d="M1172 1974C1172 1980.07 1167.08 1985 1161 1985 1154.93 1985 1150 1980.07 1150 1974 1150 1967.92 1154.93 1963 1161 1963 1167.08 1963 1172 1967.92 1172 1974Z" stroke="#4472C4" stroke-width="3.4375" stroke-linejoin="round" stroke-miterlimit="10" fill="#4472C4"/></g><g clip-path="url(#clip26)"><text fill="#595959" font-family="Calibri,Calibri_MSFontService,sans-serif" font-weight="400" font-size="41" transform="matrix(1 0 0 1 1214.49 1986)">Croissant</text></g><g clip-path="url(#clip27)"><path d="M1428 1975 1516 1975" stroke="#ED7D31" stroke-width="10.3125" stroke-linecap="round" stroke-linejoin="round" stroke-miterlimit="10" fill="none" fill-rule="evenodd"/></g><g clip-path="url(#clip28)"><path d="M1483 1974C1483 1980.07 1478.08 1985 1472 1985 1465.93 1985 1461 1980.07 1461 1974 1461 1967.92 1465.93 1963 1472 1963 1478.08 1963 1483 1967.92 1483 1974Z" stroke="#ED7D31" stroke-width="3.4375" stroke-linejoin="round" stroke-miterlimit="10" fill="#ED7D31"/></g><g clip-path="url(#clip29)"><text fill="#595959" font-family="Calibri,Calibri_MSFontService,sans-serif" font-weight="400" font-size="41" transform="matrix(1 0 0 1 1525.57 1986)">Décroissant</text></g><g clip-path="url(#clip30)"><path d="M1781 1975 1869 1975" stroke="#A5A5A5" stroke-width="10.3125" stroke-linecap="round" stroke-linejoin="round" stroke-miterlimit="10" fill="none" fill-rule="evenodd"/></g><g clip-path="url(#clip31)"><path d="M1835 1974C1835 1980.07 1830.08 1985 1824 1985 1817.93 1985 1813 1980.07 1813 1974 1813 1967.92 1817.93 1963 1824 1963 1830.08 1963 1835 1967.92 1835 1974Z" stroke="#A5A5A5" stroke-width="3.4375" stroke-linejoin="round" stroke-miterlimit="10" fill="#A5A5A5"/></g><g clip-path="url(#clip32)"><text fill="#595959" font-family="Calibri,Calibri_MSFontService,sans-serif" font-weight="400" font-size="41" transform="matrix(1 0 0 1 1878 1986)">Aléatoire</text></g><g clip-path="url(#clip33)"><path d="M2090 1975 2178 1975" stroke="#FFC000" stroke-width="10.3125" stroke-linecap="round" stroke-linejoin="round" stroke-miterlimit="10" fill="none" fill-rule="evenodd"/></g><g clip-path="url(#clip34)"><path d="M2145.02 1974C2145.02 1980.07 2140.31 1985 2134.5 1985 2128.69 1985 2123.98 1980.07 2123.98 1974 2123.98 1967.92 2128.69 1963 2134.5 1963 2140.31 1963 2145.02 1967.92 2145.02 1974Z" stroke="#FFC000" stroke-width="3.4375" stroke-linejoin="round" stroke-miterlimit="10" fill="#FFC000"/></g><g clip-path="url(#clip35)"><text fill="#595959" font-family="Calibri,Calibri_MSFontService,sans-serif" font-weight="400" font-size="41" transform="matrix(1 0 0 1 2187.55 1986)">Presque trié</text></g><rect x="173.5" y="54.5002" width="3147" height="1987" stroke="#D9D9D9" stroke-width="3.4375" stroke-linejoin="round" stroke-miterlimit="10" fill="none"/></g></svg>