<svg width="3150" height="1990" xmlns="http://www.w3.org/2000/svg" xmlns:xlink="http://www.w3.org/1999/xlink" xml:space="preserve" overflow="hidden"><defs><clipPath id="clip0"><rect x="172" y="53" width="3150" height="1990"/></clipPath><clipPath id="clip1"><rect x="172" y="54" width="3147" height="1986"/></clipPath><clipPath id="clip2"><rect x="172" y="54" width="3147" height="1986"/></clipPath><clipPath id="clip3"><rect x="484" y="224" width="2736" height="1512"/></clipPath><clipPath id="clip4"><rect x="172" y="54" width="3147" height="1986"/></clipPath><clipPath id="clip5"><rect x="484" y="224" width="2736" height="1512"/></clipPath><clipPath id="clip6"><rect x="172" y="54" width="3147" height="1986"/></clipPath><clipPath id="clip7"><rect x="484" y="224" width="2736" height="1512"/></clipPath><clipPath id="clip8"><rect x="172" y="54" width="3147" height="1986"/></clipPath><clipPath id="clip9"><rect x="484" y="224" width="2736" height="1512"/></clipPath><clipPath id="clip10"><rect x="172" y="54" width="3147" height="1986"/></clipPath><clipPath id="clip11"><rect x="172" y="54" width="3147" height="1986"/></clipPath><clipPath id="clip12"><rect x="172" y="54" width="3147" height="1986"/></clipPath><clipPath id="clip13"><rect x="172" y="54" width="3147" height="1986"/></clipPath><clipPath id="clip14"><rect x="172" y="54" width="3147" height="1986"/></clipPath><clipPath id="clip15"><rect x="172" y="54" width="3147" height="1986"/></clipPath><clipPath id="clip16"><rect x="172" y="54" width="3147" height="1986"/></clipPath><clipPath id="clip17"><rect x="172" y="54" width="3147" height="1986"/></clipPath><clipPath id="clip18"><rect x="172" y="54" width="3147" height="1986"/></clipPath><clipPath id="clip19"><rect x="172" y="54" width="3147" height="1986"/></clipPath><clipPath id="clip20"><rect x="172" y="54" width="3147" height="1986"/></clipPath><clipPath id="clip21"><rect x="172" y="54" width="3147" height="1986"/></clipPath><clipPath id="clip22"><rect x="172" y="54" width="3147" height="1986"/></clipPath><clipPath id="clip23"><rect x="172" y="54" width="3147" height="1986"/></clipPath><clipPath id="clip24"><rect x="172" y="54" width="3147" height="1986"/></clipPath><clipPath id="clip25"><rect x="172" y="54" width="3147" height="1986"/></clipPath><clipPath id="clip26"><rect x="172" y="54" width="3147" height="1986"/></clipPath><clipPath id="clip27"><rect x="172" y="54" width="3147" height="1986"/></clipPath><clipPath id="clip28"><rect x="172" y="54" width="3147" height="1986"/></clipPath><clipPath id="clip29"><rect x="172" y="54" width="3147" height="1986"/></clipPath><clipPath id="clip30"><rect x="172" y="54" width="3147" height="1986"/></clipPath><clipPath id="clip31"><rect x="172" y="54" width="3147" height="1986"/></clipPath><clipPath id="clip32"><rect x="172" y="54" width="3147" height="1986"/></clipPath><clipPath id="clip33"><rect x="172" y="54" width="3147" height="1986"/></clipPath><clipPath id="clip34"><rect x="172" y="54" width="3147" height="1986"/></clipPath><clipPath id="clip35"><rect x="172" y="54" width="3147" height="1986"/></clipPath><clipPath id="clip36"><rect x="172" y="54" width="3147" height="1986"/></clipPath></defs><g clip-path="url(#clip0)" transform="translate(-172 -53)"><rect x="173" y="54" width="3147" height="1987" fill="#FFFFFF"/><g clip-path="url(#clip1)"><path d="M484.5 1481.55 3217.5 1481.55M484.5 1229.54 3217.5 1229.54M484.5 978.532 3217.5 978.532M484.5 726.524 3217.5 726.524M484.5 475.516 3217.5 475.516M484.5 224.5 3217.5 224.5" stroke="#D9D9D9" stroke-width="3.4375" stroke-linejoin="round" stroke-miterlimit="10" fill="none"/></g><g clip-path="url(#clip2)"><path d="M484.5 1732.5 3217.5 1732.5" stroke="#D9D9D9" stroke-width="3.4375" stroke-linejoin="round" stroke-miterlimit="10" fill="none" fill-rule="evenodd"/></g><g clip-path="url(#clip3)"><path d="M484 1411 1395.05 1037.03 2306.08 728.024 3217 457" stroke="#4472C4" stroke-width="10.3125" stroke-linecap="round" stroke-linejoin="round" stroke-miterlimit="10" fill="none"/></g><g clip-path="url(#clip4)"><path d="M495.02 1411.51C495.02 1417.58 490.095 1422.51 484.021 1422.51 477.946 1422.51 473.021 1417.58 473.021 1411.51 473.021 1405.43 477.946 1400.51 484.021 1400.51 490.095 1400.51 495.02 1405.43 495.02 1411.51Z" stroke="#4472C4" stroke-width="3.4375" stroke-linejoin="round" stroke-miterlimit="10" fill="#4472C4"/><path d="M1406.02 1036.51C1406.02 1042.58 1401.1 1047.51 1395.02 1047.51 1388.95 1047.51 1384.02 1042.58 1384.02 1036.51 1384.02 1030.43 1388.95 1025.51 1395.02 1025.51 1401.1 1025.51 1406.02 1030.43 1406.02 1036.51Z" stroke="#4472C4" stroke-width="3.4375" stroke-linejoin="round" stroke-miterlimit="10" fill="#4472C4"/><path d="M2317.02 728.505C2317.02 734.58 2312.1 739.505 2306.02 739.505 2299.95 739.505 2295.02 734.58 2295.02 728.505 2295.02 722.43 2299.95 717.506 2306.02 717.506 2312.1 717.506 2317.02 722.43 2317.02 728.505Z" stroke="#4472C4" stroke-width="3.4375" stroke-linejoin="round" stroke-miterlimit="10" fill="#4472C4"/><path d="M3228.02 456.505C3228.02 462.58 3223.1 467.505 3217.02 467.505 3210.95 467.505 3206.02 462.58 3206.02 456.505 3206.02 450.43 3210.95 445.506 3217.02 445.506 3223.1 445.506 3228.02 450.43 3228.02 456.505Z" stroke="#4472C4" stroke-width="3.4375" stroke-linejoin="round" stroke-miterlimit="10" fill="#4472C4"/></g><g clip-path="url(#clip5)"><path d="M484 1297 1395.05 975.032 2306.08 687.023 3217 422" stroke="#ED7D31" stroke-width="10.3125" stroke-linecap="round" stroke-linejoin="round" stroke-miterlimit="10" fill="none"/></g><g clip-path="url(#clip6)"><path d="M495.02 1297.51C495.02 1303.58 490.095 1308.51 484.021 1308.51 477.946 1308.51 473.021 1303.58 473.021 1297.51 473.021 1291.43 477.946 1286.51 484.021 1286.51 490.095 1286.51 495.02 1291.43 495.02 1297.51Z" stroke="#ED7D31" stroke-width="3.4375" stroke-linejoin="round" stroke-miterlimit="10" fill="#ED7D31"/><path d="M1406.02 975.505C1406.02 981.58 1401.1 986.505 1395.02 986.505 1388.95 986.505 1384.02 981.58 1384.02 975.505 1384.02 969.431 1388.95 964.506 1395.02 964.506 1401.1 964.506 1406.02 969.431 1406.02 975.505Z" stroke="#ED7D31" stroke-width="3.4375" stroke-linejoin="round" stroke-miterlimit="10" fill="#ED7D31"/><path d="M2317.02 687.505C2317.02 693.58 2312.1 698.505 2306.02 698.505 2299.95 698.505 2295.02 693.58 2295.02 687.505 2295.02 681.43 2299.95 676.506 2306.02 676.506 2312.1 676.506 2317.02 681.43 2317.02 687.505Z" stroke="#ED7D31" stroke-width="3.4375" stroke-linejoin="round" stroke-miterlimit="10" fill="#ED7D31"/><path d="M3228.02 421.505C3228.02 427.58 3223.1 432.505 3217.02 432.505 3210.95 432.505 3206.02 427.58 3206.02 421.505 3206.02 415.43 3210.95 410.506 3217.02 410.506 3223.1 410.506 3228.02 415.43 3228.02 421.505Z" stroke="#ED7D31" stroke-width="3.4375" stroke-linejoin="round" stroke-miterlimit="10" fill="#ED7D31"/></g><g clip-path="url(#clip7)"><path d="M484 1308 1395.05 982.032 2306.08 691.023 3217 425" stroke="#A5A5A5" stroke-width="10.3125" stroke-linecap="round" stroke-linejoin="round" stroke-miterlimit="10" fill="none"/></g><g clip-path="url(#clip8)"><path d="M495.02 1307.51C495.02 1313.58 490.095 1318.51 484.021 1318.51 477.946 1318.51 473.021 1313.58 473.021 1307.51 473.021 1301.43 477.946 1296.51 484.021 1296.51 490.095 1296.51 495.02 1301.43 495.02 1307.51Z" stroke="#A5A5A5" stroke-width="3.4375" stroke-linejoin="round" stroke-miterlimit="10" fill="#A5A5A5"/><path d="M1406.02 981.505C1406.02 987.58 1401.1 992.505 1395.02 992.505 1388.95 992.505 1384.02 987.58 1384.02 981.505 1384.02 975.43 1388.95 970.506 1395.02 970.506 1401.1 970.506 1406.02 975.43 1406.02 981.505Z" stroke="#A5A5A5" stroke-width="3.4375" stroke-linejoin="round" stroke-miterlimit="10" fill="#A5A5A5"/><path d="M2317.02 691.506C2317.02 697.581 2312.1 702.505 2306.02 702.505 2299.95 702.505 2295.02 697.581 2295.02 691.506 2295.02 685.431 2299.95 680.506 2306.02 680.506 2312.1 680.506 2317.02 685.431 2317.02 691.506Z" stroke="#A5A5A5" stroke-width="3.4375" stroke-linejoin="round" stroke-miterlimit="10" fill="#A5A5A5"/><path d="M3228.02 425.505C3228.02 431.58 3223.1 436.505 3217.02 436.505 3210.95 436.505 3206.02 431.58 3206.02 425.505 3206.02 419.431 3210.95 414.506 3217.02 414.506 3223.1 414.506 3228.02 419.431 3228.02 425.505Z" stroke="#A5A5A5" stroke-width="3.4375" stroke-linejoin="round" stroke-miterlimit="10" fill="#A5A5A5"/></g><g clip-path="url(#clip9)"><path d="M484 1303 1395.05 977.032 2306.08 686.022 3217 421" stroke="#FFC000" stroke-width="10.3125" stroke-linecap="round" stroke-linejoin="round" stroke-miterlimit="10" fill="none"/></g><g clip-path="url(#clip10)"><path d="M495.02 1303.51C495.02 1309.58 490.095 1314.51 484.021 1314.51 477.946 1314.51 473.021 1309.58 473.021 1303.51 473.021 1297.43 477.946 1292.51 484.021 1292.51 490.095 1292.51 495.02 1297.43 495.02 1303.51Z" stroke="#FFC000" stroke-width="3.4375" stroke-linejoin="round" stroke-miterlimit="10" fill="#FFC000"/><path d="M1406.02 977.506C1406.02 983.581 1401.1 988.505 1395.02 988.505 1388.95 988.505 1384.02 983.581 1384.02 977.506 1384.02 971.431 1388.95 966.506 1395.02 966.506 1401.1 966.506 1406.02 971.431 1406.02 977.506Z" stroke="#FFC000" stroke-width="3.4375" stroke-linejoin="round" stroke-miterlimit="10" fill="#FFC000"/><path d="M2317.02 686.505C2317.02 692.58 2312.1 697.505 2306.02 697.505 2299.95 697.505 2295.02 692.58 2295.02 686.505 2295.02 680.43 2299.95 675.506 2306.02 675.506 2312.1 675.506 2317.02 680.43 2317.02 686.505Z" stroke="#FFC000" stroke-width="3.4375" stroke-linejoin="round" stroke-miterlimit="10" fill="#FFC000"/><path d="M3228.02 420.505C3228.02 426.58 3223.1 431.505 3217.02 431.505 3210.95 431.505 3206.02 426.58 3206.02 420.505 3206.02 414.43 3210.95 409.506 3217.02 409.506 3223.1 409.506 3228.02 414.43 3228.02 420.505Z" stroke="#FFC000" stroke-width="3.4375" stroke-linejoin="round" stroke-miterlimit="10" fill="#FFC000"/></g><g clip-path="url(#clip11)"><text fill="#595959" font-family="Calibri,Calibri_MSFontService,sans-serif" font-weight="400" font-size="41" transform="matrix(1 0 0 1 424.902 1744)">1</text></g><g clip-path="url(#clip12)"><text fill="#595959" font-family="Calibri,Calibri_MSFontService,sans-serif" font-weight="400" font-size="41" transform="matrix(1 0 0 1 404.002 1493)">10</text></g><g clip-path="url(#clip13)"><text fill="#595959" font-family="Calibri,Calibri_MSFontService,sans-serif" font-weight="400" font-size="41" transform="matrix(1 0 0 1 383.102 1241)">100</text></g><g clip-path="url(#clip14)"><text fill="#595959" font-family="Calibri,Calibri_MSFontService,sans-serif" font-weight="400" font-size="41" transform="matrix(1 0 0 1 362.202 990)">1000</text></g><g clip-path="url(#clip15)"><text fill="#595959" font-family="Calibri,Calibri_MSFontService,sans-serif" font-weight="400" font-size="41" transform="matrix(1 0 0 1 341.302 738)">10000</text></g><g clip-path="url(#clip16)"><text fill="#595959" font-family="Calibri,Calibri_MSFontService,sans-serif" font-weight="400" font-size="41" transform="matrix(1 0 0 1 320.402 487)">100000</text></g><g clip-path="url(#clip17)"><text fill="#595959" font-family="Calibri,Calibri_MSFontService,sans-serif" font-weight="400" font-size="41" transform="matrix(1 0 0 1 299.502 236)">1000000</text></g><g clip-path="url(#clip18)"><text fill="#595959" font-family="Calibri,Calibri_MSFontService,sans-serif" font-weight="400" font-size="41" transform="matrix(1 0 0 1 463.169 1798)">10</text></g><g clip-path="url(#clip19)"><text fill="#595959" font-family="Calibri,Calibri_MSFontService,sans-serif" font-weight="400" font-size="41" transform="matrix(1 0 0 1 1363.77 1798)">100</text></g><g clip-path="url(#clip20)"><text fill="#595959" font-family="Calibri,Calibri_MSFontService,sans-serif" font-weight="400" font-size="41" transform="matrix(1 0 0 1 2264.36 1798)">1000</text></g><g clip-path="url(#clip21)"><text fill="#595959" font-family="Calibri,Calibri_MSFontService,sans-serif" font-weight="400" font-size="41" transform="matrix(1 0 0 1 3164.96 1798)">10000</text></g><g clip-path="url(#clip22)"><text fill="#595959" font-family="Calibri,Calibri_MSFontService,sans-serif" font-weight="400" font-size="46" transform="matrix(6.12323e-17 -1 1 6.12323e-17 273.812 1138)">Nb d'affectations</text></g><g clip-path="url(#clip23)"><text fill="#595959" font-family="Calibri,Calibri_MSFontService,sans-serif" font-weight="400" font-size="46" transform="matrix(1 0 0 1 1725.58 1867)">Taille vecteur</text></g><g clip-path="url(#clip24)"><text fill="#595959" font-family="Calibri,Calibri_MSFontService,sans-serif" font-weight="400" font-size="64" transform="matrix(1 0 0 1 1319.86 149)">Mesure d'affectation: Stable sort</text></g><g clip-path="url(#clip25)"><path d="M1117 1975 1205 1975" stroke="#4472C4" stroke-width="10.3125" stroke-linecap="round" stroke-linejoin="round" stroke-miterlimit="10" fill="none" fill-rule="evenodd"/></g><g clip-path="url(#clip26)"><path d="M1172 1974C1172 1980.07 1167.08 1985 1161 1985 1154.93 1985 1150 1980.07 1150 1974 1150 1967.92 1154.93 1963 1161 1963 1167.08 1963 1172 1967.92 1172 1974Z" stroke="#4472C4" stroke-width="3.4375" stroke-linejoin="round" stroke-miterlimit="10" fill="#4472C4"/></g><g clip-path="url(#clip27)"><text fill="#595959" font-family="Calibri,Calibri_MSFontService,sans-serif" font-weight="400" font-size="41" transform="matrix(1 0 0 1 1214.49 1986)">Croissant</text></g><g clip-path="url(#clip28)"><path d="M1428 1975 1516 1975" stroke="#ED7D31" stroke-width="10.3125" stroke-linecap="round" stroke-linejoin="round" stroke-miterlimit="10" fill="none" fill-rule="evenodd"/></g><g clip-path="url(#clip29)"><path d="M1483 1974C1483 1980.07 1478.08 1985 1472 1985 1465.93 1985 1461 1980.07 1461 1974 1461 1967.92 1465.93 1963 1472 1963 1478.08 1963 1483 1967.92 1483 1974Z" stroke="#ED7D31" stroke-width="3.4375" stroke-linejoin="round" stroke-miterlimit="10" fill="#ED7D31"/></g><g clip-path="url(#clip30)"><text fill="#595959" font-family="Calibri,Calibri_MSFontService,sans-serif" font-weight="400" font-size="41" transform="matrix(1 0 0 1 1525.57 1986)">Décroissant</text></g><g clip-path="url(#clip31)"><path d="M1781 1975 1869 1975" stroke="#A5A5A5" stroke-width="10.3125" stroke-linecap="round" stroke-linejoin="round" stroke-miterlimit="10" fill="none" fill-rule="evenodd"/></g><g clip-path="url(#clip32)"><path d="M1835 1974C1835 1980.07 1830.08 1985 1824 1985 1817.93 1985 1813 1980.07 1813 1974 1813 1967.92 1817.93 1963 1824 1963 1830.08 1963 1835 1967.92 1835 1974Z" stroke="#A5A5A5" stroke-width="3.4375" stroke-linejoin="round" stroke-miterlimit="10" fill="#A5A5A5"/></g><g clip-path="url(#clip33)"><text fill="#595959" font-family="Calibri,Calibri_MSFontService,sans-serif" font-weight="400" font-size="41" transform="matrix(1 0 0 1 1878 1986)">Aléatoire</text></g><g clip-path="url(#clip34)"><path d="M2090 1975 2178 1975" stroke="#FFC000" stroke-width="10.3125" stroke-linecap="round" stroke-linejoin="round" stroke-miterlimit="10" fill="none" fill-rule="evenodd"/></g><g clip-path="url(#clip35)"><path d="M2145.02 1974C2145.02 1980.07 2140.31 1985 2134.5 1985 2128.69 1985 2123.98 1980.07 2123.98 1974 2123.98 1967.92 2128.69 1963 2134.5 1963 2140.31 1963 2145.02 1967.92 2145.02 1974Z" stroke="#FFC000" stroke-width="3.4375" stroke-linejoin="round" stroke-miterlimit="10" fill="#FFC000"/></g><g clip-path="url(#clip36)"><text fill="#595959" font-family="Calibri,Calibri_MSFontService,sans-serif" font-weight="400" font-size="41" transform="matrix(1 0 0 1 2187.55 1986)">Presque trié</text></g><rect x="173.5" y="54.5002" width="3147" height="1987" stroke="#D9D9D9" stroke-width="3.4375" stroke-linejoin="round" stroke-miterlimit="10" fill="none"/></g></svg>