<svg width="3150" height="1990" xmlns="http://www.w3.org/2000/svg" xmlns:xlink="http://www.w3.org/1999/xlink" xml:space="preserve" overflow="hidden"><defs><clipPath id="clip0"><rect x="172" y="53" width="3150" height="1990"/></clipPath><clipPath id="clip1"><rect x="172" y="54" width="3147" height="1986"/></clipPath><clipPath id="clip2"><rect x="172" y="54" width="3147" height="1986"/></clipPath><clipPath id="clip3"><rect x="515" y="224" width="2705" height="1512"/></clipPath><clipPath id="clip4"><rect x="172" y="54" width="3147" height="1986"/></clipPath><clipPath id="clip5"><rect x="515" y="224" width="2705" height="1512"/></clipPath><clipPath id="clip6"><rect x="172" y="54" width="3147" height="1986"/></clipPath><clipPath id="clip7"><rect x="515" y="224" width="2705" height="1512"/></clipPath><clipPath id="clip8"><rect x="172" y="54" width="3147" height="1986"/></clipPath><clipPath id="clip9"><rect x="515" y="224" width="2705" height="1512"/></clipPath><clipPath id="clip10"><rect x="172" y="54" width="3147" height="1986"/></clipPath><clipPath id="clip11"><rect x="172" y="54" width="3147" height="1986"/></clipPath><clipPath id="clip12"><rect x="172" y="54" width="3147" height="1986"/></clipPath><clipPath id="clip13"><rect x="172" y="54" width="3147" height="1986"/></clipPath><clipPath id="clip14"><rect x="172" y="54" width="3147" height="1986"/></clipPath><clipPath id="clip15"><rect x="172" y="54" width="3147" height="1986"/></clipPath><clipPath id="clip16"><rect x="172" y="54" width="3147" height="1986"/></clipPath><clipPath id="clip17"><rect x="172" y="54" width="3147" height="1986"/></clipPath><clipPath id="clip18"><rect x="172" y="54" width="3147" height="1986"/></clipPath><clipPath id="clip19"><rect x="172" y="54" width="3147" height="1986"/></clipPath><clipPath id="clip20"><rect x="172" y="54" width="3147" height="1986"/></clipPath><clipPath id="clip21"><rect x="172" y="54" width="3147" height="1986"/></clipPath><clipPath id="clip22"><rect x="172" y="54" width="3147" height="1986"/></clipPath><clipPath id="clip23"><rect x="172" y="54" width="3147" height="1986"/></clipPath><clipPath id="clip24"><rect x="172" y="54" width="3147" height="1986"/></clipPath><clipPath id="clip25"><rect x="172" y="54" width="3147" height="1986"/></clipPath><clipPath id="clip26"><rect x="172" y="54" width="3147" height="1986"/></clipPath><clipPath id="clip27"><rect x="172" y="54" width="3147" height="1986"/></clipPath><clipPath id="clip28"><rect x="172" y="54" width="3147" height="1986"/></clipPath><clipPath id="clip29"><rect x="172" y="54" width="3147" height="1986"/></clipPath><clipPath id="clip30"><rect x="172" y="54" width="3147" height="1986"/></clipPath><clipPath id="clip31"><rect x="172" y="54" width="3147" height="1986"/></clipPath><clipPath id="clip32"><rect x="172" y="54" width="3147" height="1986"/></clipPath><clipPath id="clip33"><rect x="172" y="54" width="3147" height="1986"/></clipPath><clipPath id="clip34"><rect x="172" y="54" width="3147" height="1986"/></clipPath><clipPath id="clip35"><rect x="172" y="54" width="3147" height="1986"/></clipPath><clipPath id="clip36"><rect x="172" y="54" width="3147" height="1986"/></clipPath></defs><g clip-path="url(#clip0)" transform="translate(-172 -53)"><rect x="173" y="54" width="3147" height="1987" fill="#FFFFFF"/><g clip-path="url(#clip1)"><path d="M515.5 1732.5 3217.5 1732.5M515.5 1481.55 3217.5 1481.55M515.5 1229.54 3217.5 1229.54M515.5 726.524 3217.5 726.524M515.5 475.516 3217.5 475.516M515.5 224.5 3217.5 224.5" stroke="#D9D9D9" stroke-width="3.4375" stroke-linejoin="round" stroke-miterlimit="10" fill="none"/></g><g clip-path="url(#clip2)"><path d="M515.5 978.5 3217.5 978.501" stroke="#D9D9D9" stroke-width="3.4375" stroke-linejoin="round" stroke-miterlimit="10" fill="none" fill-rule="evenodd"/></g><g clip-path="url(#clip3)"><path d="M515 1663 1416.05 1267.04 2316.08 814.027 3217 306" stroke="#4472C4" stroke-width="10.3125" stroke-linecap="round" stroke-linejoin="round" stroke-miterlimit="10" fill="none"/></g><g clip-path="url(#clip4)"><path d="M526.02 1662.51C526.02 1668.58 521.095 1673.51 515.021 1673.51 508.946 1673.51 504.021 1668.58 504.021 1662.51 504.021 1656.43 508.946 1651.51 515.021 1651.51 521.095 1651.51 526.02 1656.43 526.02 1662.51Z" stroke="#4472C4" stroke-width="3.4375" stroke-linejoin="round" stroke-miterlimit="10" fill="#4472C4"/><path d="M1426.02 1266.51C1426.02 1272.58 1421.1 1277.51 1415.02 1277.51 1408.95 1277.51 1404.02 1272.58 1404.02 1266.51 1404.02 1260.43 1408.95 1255.51 1415.02 1255.51 1421.1 1255.51 1426.02 1260.43 1426.02 1266.51Z" stroke="#4472C4" stroke-width="3.4375" stroke-linejoin="round" stroke-miterlimit="10" fill="#4472C4"/><path d="M2327.02 813.506C2327.02 819.581 2322.1 824.505 2316.02 824.505 2309.95 824.505 2305.02 819.581 2305.02 813.506 2305.02 807.431 2309.95 802.506 2316.02 802.506 2322.1 802.506 2327.02 807.431 2327.02 813.506Z" stroke="#4472C4" stroke-width="3.4375" stroke-linejoin="round" stroke-miterlimit="10" fill="#4472C4"/><path d="M3228.02 306.506C3228.02 312.58 3223.1 317.505 3217.02 317.505 3210.95 317.505 3206.02 312.58 3206.02 306.506 3206.02 300.431 3210.95 295.506 3217.02 295.506 3223.1 295.506 3228.02 300.431 3228.02 306.506Z" stroke="#4472C4" stroke-width="3.4375" stroke-linejoin="round" stroke-miterlimit="10" fill="#4472C4"/></g><g clip-path="url(#clip5)"><path d="M515 1675 1416.05 1269.04 2316.08 812.027 3217 309" stroke="#ED7D31" stroke-width="10.3125" stroke-linecap="round" stroke-linejoin="round" stroke-miterlimit="10" fill="none"/></g><g clip-path="url(#clip6)"><path d="M526.02 1674.51C526.02 1680.58 521.095 1685.51 515.021 1685.51 508.946 1685.51 504.021 1680.58 504.021 1674.51 504.021 1668.43 508.946 1663.51 515.021 1663.51 521.095 1663.51 526.02 1668.43 526.02 1674.51Z" stroke="#ED7D31" stroke-width="3.4375" stroke-linejoin="round" stroke-miterlimit="10" fill="#ED7D31"/><path d="M1426.02 1268.51C1426.02 1274.58 1421.1 1279.51 1415.02 1279.51 1408.95 1279.51 1404.02 1274.58 1404.02 1268.51 1404.02 1262.43 1408.95 1257.51 1415.02 1257.51 1421.1 1257.51 1426.02 1262.43 1426.02 1268.51Z" stroke="#ED7D31" stroke-width="3.4375" stroke-linejoin="round" stroke-miterlimit="10" fill="#ED7D31"/><path d="M2327.02 811.505C2327.02 817.58 2322.1 822.505 2316.02 822.505 2309.95 822.505 2305.02 817.58 2305.02 811.505 2305.02 805.431 2309.95 800.506 2316.02 800.506 2322.1 800.506 2327.02 805.431 2327.02 811.505Z" stroke="#ED7D31" stroke-width="3.4375" stroke-linejoin="round" stroke-miterlimit="10" fill="#ED7D31"/><path d="M3228.02 308.506C3228.02 314.581 3223.1 319.505 3217.02 319.505 3210.95 319.505 3206.02 314.581 3206.02 308.506 3206.02 302.431 3210.95 297.506 3217.02 297.506 3223.1 297.506 3228.02 302.431 3228.02 308.506Z" stroke="#ED7D31" stroke-width="3.4375" stroke-linejoin="round" stroke-miterlimit="10" fill="#ED7D31"/></g><g clip-path="url(#clip7)"><path d="M515 1681 1416.05 1282.04 2316.08 810.027 3217 307" stroke="#A5A5A5" stroke-width="10.3125" stroke-linecap="round" stroke-linejoin="round" stroke-miterlimit="10" fill="none"/></g><g clip-path="url(#clip8)"><path d="M526.02 1681.51C526.02 1687.58 521.095 1692.51 515.021 1692.51 508.946 1692.51 504.021 1687.58 504.021 1681.51 504.021 1675.43 508.946 1670.51 515.021 1670.51 521.095 1670.51 526.02 1675.43 526.02 1681.51Z" stroke="#A5A5A5" stroke-width="3.4375" stroke-linejoin="round" stroke-miterlimit="10" fill="#A5A5A5"/><path d="M1426.02 1281.51C1426.02 1287.58 1421.1 1292.51 1415.02 1292.51 1408.95 1292.51 1404.02 1287.58 1404.02 1281.51 1404.02 1275.43 1408.95 1270.51 1415.02 1270.51 1421.1 1270.51 1426.02 1275.43 1426.02 1281.51Z" stroke="#A5A5A5" stroke-width="3.4375" stroke-linejoin="round" stroke-miterlimit="10" fill="#A5A5A5"/><path d="M2327.02 810.505C2327.02 816.58 2322.1 821.505 2316.02 821.505 2309.95 821.505 2305.02 816.58 2305.02 810.505 2305.02 804.431 2309.95 799.506 2316.02 799.506 2322.1 799.506 2327.02 804.431 2327.02 810.505Z" stroke="#A5A5A5" stroke-width="3.4375" stroke-linejoin="round" stroke-miterlimit="10" fill="#A5A5A5"/><path d="M3228.02 307.506C3228.02 313.581 3223.1 318.505 3217.02 318.505 3210.95 318.505 3206.02 313.581 3206.02 307.506 3206.02 301.431 3210.95 296.506 3217.02 296.506 3223.1 296.506 3228.02 301.431 3228.02 307.506Z" stroke="#A5A5A5" stroke-width="3.4375" stroke-linejoin="round" stroke-miterlimit="10" fill="#A5A5A5"/></g><g clip-path="url(#clip9)"><path d="M515 1704 1416.05 1293.04 2316.08 812.027 3217 306" stroke="#FFC000" stroke-width="10.3125" stroke-linecap="round" stroke-linejoin="round" stroke-miterlimit="10" fill="none"/></g><g clip-path="url(#clip10)"><path d="M526.02 1703.51C526.02 1709.58 521.095 1714.51 515.021 1714.51 508.946 1714.51 504.021 1709.58 504.021 1703.51 504.021 1697.43 508.946 1692.51 515.021 1692.51 521.095 1692.51 526.02 1697.43 526.02 1703.51Z" stroke="#FFC000" stroke-width="3.4375" stroke-linejoin="round" stroke-miterlimit="10" fill="#FFC000"/><path d="M1426.02 1292.51C1426.02 1298.58 1421.1 1303.51 1415.02 1303.51 1408.95 1303.51 1404.02 1298.58 1404.02 1292.51 1404.02 1286.43 1408.95 1281.51 1415.02 1281.51 1421.1 1281.51 1426.02 1286.43 1426.02 1292.51Z" stroke="#FFC000" stroke-width="3.4375" stroke-linejoin="round" stroke-miterlimit="10" fill="#FFC000"/><path d="M2327.02 811.505C2327.02 817.58 2322.1 822.505 2316.02 822.505 2309.95 822.505 2305.02 817.58 2305.02 811.505 2305.02 805.431 2309.95 800.506 2316.02 800.506 2322.1 800.506 2327.02 805.431 2327.02 811.505Z" stroke="#FFC000" stroke-width="3.4375" stroke-linejoin="round" stroke-miterlimit="10" fill="#FFC000"/><path d="M3228.02 306.506C3228.02 312.58 3223.1 317.505 3217.02 317.505 3210.95 317.505 3206.02 312.58 3206.02 306.506 3206.02 300.431 3210.95 295.506 3217.02 295.506 3223.1 295.506 3228.02 300.431 3228.02 306.506Z" stroke="#FFC000" stroke-width="3.4375" stroke-linejoin="round" stroke-miterlimit="10" fill="#FFC000"/></g><g clip-path="url(#clip11)"><text fill="#595959" font-family="Calibri,Calibri_MSFontService,sans-serif" font-weight="400" font-size="41" transform="matrix(1 0 0 1 362.202 1744)">0,0010</text></g><g clip-path="url(#clip12)"><text fill="#595959" font-family="Calibri,Calibri_MSFontService,sans-serif" font-weight="400" font-size="41" transform="matrix(1 0 0 1 362.202 1493)">0,0100</text></g><g clip-path="url(#clip13)"><text fill="#595959" font-family="Calibri,Calibri_MSFontService,sans-serif" font-weight="400" font-size="41" transform="matrix(1 0 0 1 362.202 1241)">0,1000</text></g><g clip-path="url(#clip14)"><text fill="#595959" font-family="Calibri,Calibri_MSFontService,sans-serif" font-weight="400" font-size="41" transform="matrix(1 0 0 1 362.202 990)">1,0000</text></g><g clip-path="url(#clip15)"><text fill="#595959" font-family="Calibri,Calibri_MSFontService,sans-serif" font-weight="400" font-size="41" transform="matrix(1 0 0 1 341.302 738)">10,0000</text></g><g clip-path="url(#clip16)"><text fill="#595959" font-family="Calibri,Calibri_MSFontService,sans-serif" font-weight="400" font-size="41" transform="matrix(1 0 0 1 320.402 487)">100,0000</text></g><g clip-path="url(#clip17)"><text fill="#595959" font-family="Calibri,Calibri_MSFontService,sans-serif" font-weight="400" font-size="41" transform="matrix(1 0 0 1 299.502 236)">1000,0000</text></g><g clip-path="url(#clip18)"><text fill="#595959" font-family="Calibri,Calibri_MSFontService,sans-serif" font-weight="400" font-size="41" transform="matrix(1 0 0 1 494.359 1798)">10</text></g><g clip-path="url(#clip19)"><text fill="#595959" font-family="Calibri,Calibri_MSFontService,sans-serif" font-weight="400" font-size="41" transform="matrix(1 0 0 1 1384.56 1798)">100</text></g><g clip-path="url(#clip20)"><text fill="#595959" font-family="Calibri,Calibri_MSFontService,sans-serif" font-weight="400" font-size="41" transform="matrix(1 0 0 1 2274.76 1798)">1000</text></g><g clip-path="url(#clip21)"><text fill="#595959" font-family="Calibri,Calibri_MSFontService,sans-serif" font-weight="400" font-size="41" transform="matrix(1 0 0 1 3164.96 1798)">10000</text></g><g clip-path="url(#clip22)"><text fill="#595959" font-family="Calibri,Calibri_MSFontService,sans-serif" font-weight="400" font-size="46" transform="matrix(6.12323e-17 -1 1 6.12323e-17 273.812 1101)">Temps en ms</text></g><g clip-path="url(#clip23)"><text fill="#595959" font-family="Calibri,Calibri_MSFontService,sans-serif" font-weight="400" font-size="46" transform="matrix(1 0 0 1 1741.18 1867)">Taille vecteur</text></g><g clip-path="url(#clip24)"><text fill="#595959" font-family="Calibri,Calibri_MSFontService,sans-serif" font-weight="400" font-size="64" transform="matrix(1 0 0 1 1399.65 149)">Tri par sélection par temps</text></g><g clip-path="url(#clip25)"><path d="M1117 1975 1205 1975" stroke="#4472C4" stroke-width="10.3125" stroke-linecap="round" stroke-linejoin="round" stroke-miterlimit="10" fill="none" fill-rule="evenodd"/></g><g clip-path="url(#clip26)"><path d="M1172 1974C1172 1980.07 1167.08 1985 1161 1985 1154.93 1985 1150 1980.07 1150 1974 1150 1967.92 1154.93 1963 1161 1963 1167.08 1963 1172 1967.92 1172 1974Z" stroke="#4472C4" stroke-width="3.4375" stroke-linejoin="round" stroke-miterlimit="10" fill="#4472C4"/></g><g clip-path="url(#clip27)"><text fill="#595959" font-family="Calibri,Calibri_MSFontService,sans-serif" font-weight="400" font-size="41" transform="matrix(1 0 0 1 1214.49 1986)">Croissant</text></g><g clip-path="url(#clip28)"><path d="M1428 1975 1516 1975" stroke="#ED7D31" stroke-width="10.3125" stroke-linecap="round" stroke-linejoin="round" stroke-miterlimit="10" fill="none" fill-rule="evenodd"/></g><g clip-path="url(#clip29)"><path d="M1483 1974C1483 1980.07 1478.08 1985 1472 1985 1465.93 1985 1461 1980.07 1461 1974 1461 1967.92 1465.93 1963 1472 1963 1478.08 1963 1483 1967.92 1483 1974Z" stroke="#ED7D31" stroke-width="3.4375" stroke-linejoin="round" stroke-miterlimit="10" fill="#ED7D31"/></g><g clip-path="url(#clip30)"><text fill="#595959" font-family="Calibri,Calibri_MSFontService,sans-serif" font-weight="400" font-size="41" transform="matrix(1 0 0 1 1525.57 1986)">Décroissant</text></g><g clip-path="url(#clip31)"><path d="M1781 1975 1869 1975" stroke="#A5A5A5" stroke-width="10.3125" stroke-linecap="round" stroke-linejoin="round" stroke-miterlimit="10" fill="none" fill-rule="evenodd"/></g><g clip-path="url(#clip32)"><path d="M1835 1974C1835 1980.07 1830.08 1985 1824 1985 1817.93 1985 1813 1980.07 1813 1974 1813 1967.92 1817.93 1963 1824 1963 1830.08 1963 1835 1967.92 1835 1974Z" stroke="#A5A5A5" stroke-width="3.4375" stroke-linejoin="round" stroke-miterlimit="10" fill="#A5A5A5"/></g><g clip-path="url(#clip33)"><text fill="#595959" font-family="Calibri,Calibri_MSFontService,sans-serif" font-weight="400" font-size="41" transform="matrix(1 0 0 1 1878 1986)">Aléatoire</text></g><g clip-path="url(#clip34)"><path d="M2090 1975 2178 1975" stroke="#FFC000" stroke-width="10.3125" stroke-linecap="round" stroke-linejoin="round" stroke-miterlimit="10" fill="none" fill-rule="evenodd"/></g><g clip-path="url(#clip35)"><path d="M2145.02 1974C2145.02 1980.07 2140.31 1985 2134.5 1985 2128.69 1985 2123.98 1980.07 2123.98 1974 2123.98 1967.92 2128.69 1963 2134.5 1963 2140.31 1963 2145.02 1967.92 2145.02 1974Z" stroke="#FFC000" stroke-width="3.4375" stroke-linejoin="round" stroke-miterlimit="10" fill="#FFC000"/></g><g clip-path="url(#clip36)"><text fill="#595959" font-family="Calibri,Calibri_MSFontService,sans-serif" font-weight="400" font-size="41" transform="matrix(1 0 0 1 2187.55 1986)">Presque trié</text></g><rect x="173.5" y="54.5002" width="3147" height="1987" stroke="#D9D9D9" stroke-width="3.4375" stroke-linejoin="round" stroke-miterlimit="10" fill="none"/></g></svg>